<?xml version="1.0" encoding="utf-8"?>
<!-- Generator: Adobe Illustrator 16.0.0, SVG Export Plug-In . SVG Version: 6.00 Build 0)  -->
<!DOCTYPE svg PUBLIC "-//W3C//DTD SVG 1.0//EN" "http://www.w3.org/TR/2001/REC-SVG-20010904/DTD/svg10.dtd">
<svg version="1.0" xmlns="http://www.w3.org/2000/svg" xmlns:xlink="http://www.w3.org/1999/xlink" x="0px" y="0px" width="1700px"
	 height="1116px" viewBox="0 0 1700 1116" enable-background="new 0 0 1700 1116" xml:space="preserve">
<pattern  x="-1586.169" y="-571" width="490.25" height="490.25" patternUnits="userSpaceOnUse" id="Unnamed_Pattern_2" viewBox="0 -490.25 490.25 490.25" overflow="visible">
	<g>
		<polygon fill="none" points="0,-490.25 490.25,-490.25 490.25,0 0,0 		"/>
		<path d="M180.657-490.25c0.304,0.519,0.681,1.01,0.886,1.564c0.152,0.41,0.223,1.246,0.085,1.303
			c-0.673,0.279-1.429,0.475-2.151,0.46c-0.311-0.007-0.827-0.566-0.871-0.922c-0.098-0.786,0.046-1.602,0.091-2.405
			C179.35-490.25,180.004-490.25,180.657-490.25z"/>
		<path d="M490.25-102.707c-0.335-0.131-0.813-0.167-0.974-0.412c-0.318-0.485-0.461-1.085-0.677-1.638
			c0.55-0.134,1.101-0.268,1.65-0.401C490.25-104.342,490.25-103.524,490.25-102.707z"/>
		<path d="M0-105.403c0.848-0.12,1.334,0.227,1.283,1.103c-0.043,0.766-0.346,1.33-1.283,1.104C0-103.933,0-104.668,0-105.403z"/>
		<path d="M122.806-163.377c0.86,0.5,1.727,0.993,2.577,1.511c0.117,0.072,0.214,0.268,0.225,0.413
			c0.067,0.964,0.178,1.932,0.141,2.894c-0.038,0.976-1.816,2.096-2.861,1.89c-1.742-0.342-2.334-1.189-2.083-2.917
			c0.036-0.25-0.088-0.527-0.154-0.788c-0.144-0.568-0.597-1.338-0.381-1.655c0.347-0.51,1.126-0.736,1.741-1.042
			c0.164-0.081,0.4-0.013,0.604-0.013C122.678-163.183,122.742-163.279,122.806-163.377z"/>
		<path d="M167.349-262.934c-0.956-0.623-1.721-1.074-2.429-1.602c-0.348-0.258-0.54-0.73-0.893-0.979
			c-0.873-0.615-0.873-1.548-0.346-2.115c0.387-0.416,1.371-0.461,2.048-0.367c0.626,0.088,1.36,0.443,1.754,0.922
			c0.669,0.811,1.22,1.773,1.553,2.764C169.109-264.094,168.063-263.5,167.349-262.934z"/>
		<path d="M410.513-22.612c1.121-0.018,2.188,0.021,2.251,1.564c0.007,0.172,0.281,0.372,0.474,0.492
			c0.997,0.623,1.104,1.115,0.436,2.148c-0.414,0.639-1.569,0.878-2.161,0.328c-0.915-0.851-1.772-1.773-2.577-2.729
			c-0.271-0.323-0.544-0.974-0.396-1.239c0.179-0.319,0.797-0.416,1.242-0.553C410.006-22.669,410.268-22.612,410.513-22.612z"/>
		<path d="M27.67-87.161c0.293-0.686,0.409-1.738,0.914-1.979c1.074-0.514,1.621,0.482,2.099,1.323
			c0.136,0.239,0.392,0.407,0.583,0.616c0.494,0.542,0.549,1.065-0.07,1.563c-0.186,0.148-0.414,0.284-0.52,0.481
			c-0.264,0.488-0.197,1.402-1.123,1.037c-0.848-0.334-1.797-0.705-1.631-1.955c0.042-0.319,0.006-0.649,0.006-0.976
			C27.842-87.088,27.756-87.125,27.67-87.161z"/>
		<path d="M104.574-192.588c1.413-0.172,2.057,0.931,2.736,1.685c0.734,0.816,0.029,2.153-1.076,2.211
			c-1.15,0.06-2.502,0.36-2.563-1.495c-0.003-0.075-0.043-0.171-0.099-0.219c-0.495-0.437-1.15-0.938-0.599-1.599
			C103.29-192.382,104.027-192.405,104.574-192.588z"/>
		<path d="M423.967-244.215c1.028-0.854,2.244-0.602,2.81,0.684c0.504,1.146-0.786,1.342-1.208,1.991
			c-0.112,0.174-0.918,0.158-1.143-0.052c-0.697-0.651-1.293-1.421-1.867-2.189c-0.113-0.15,0.042-0.501,0.074-0.76
			C423.03-244.443,423.428-244.347,423.967-244.215z"/>
		<path d="M276.11-331.125c-0.345,0.37-0.82,1.166-1.521,1.549c-0.677,0.369-0.959-0.373-0.998-0.968
			c-0.051-0.759,0.079-1.534-0.807-1.979c-0.155-0.078-0.224-0.662-0.099-0.875c0.15-0.259,0.535-0.486,0.845-0.525
			C274.495-334.043,276.075-332.563,276.11-331.125z"/>
		<path d="M40.781-440.727c1.05,0.757,1.999,1.38,2.854,2.112c0.152,0.13-0.024,1.015-0.158,1.043
			c-0.596,0.128-1.258,0.185-1.848,0.052c-0.623-0.141-1.241-0.456-1.766-0.831c-0.329-0.235-0.759-0.923-0.661-1.057
			C39.54-439.871,40.088-440.181,40.781-440.727z"/>
		<path d="M80.258-430.222c0.479,0.422,1.311,0.804,1.363,1.273c0.111,0.993-0.942,1.761-1.912,1.732
			c-1.049-0.03-1.298-0.671-1.266-1.55C78.482-429.811,79.163-430.023,80.258-430.222z"/>
		<path d="M211.65-380.598c0.994-0.689,2.104-1.123,3.329-0.756c0.306,0.092,0.573,0.813,0.57,1.244
			c-0.001,0.254-0.613,0.76-0.871,0.713c-1.019-0.184-2.007-0.542-3.006-0.836C211.665-380.354,211.658-380.476,211.65-380.598z"/>
		<path d="M262.654-238.313c0.579,0.546,1.329,1.16,1.284,1.224c-0.456,0.658-1.041,1.227-1.59,1.819
			c-0.485-0.58-0.971-1.16-1.456-1.74C261.409-237.393,261.927-237.775,262.654-238.313z"/>
		<path d="M115.78-108.964c0.603,0.625,1.187,0.958,1.296,1.406c0.178,0.731-0.751,1.758-1.382,1.722
			c-1.03-0.06-1.316-0.895-1.239-1.642C114.502-107.929,115.172-108.314,115.78-108.964z"/>
		<path d="M6.304-485.897c0.179-0.39,0.313-1.103,0.743-1.464c0.248-0.209,1.07,0.015,1.461,0.289
			c0.569,0.396,1.307,0.941,0.809,1.789c-0.145,0.245-0.84,0.326-1.223,0.234C7.529-485.185,7.02-485.543,6.304-485.897z"/>
		<path d="M253.243-241.965c0.325,0,0.713-0.111,0.962,0.027c0.335,0.187,0.778,0.567,0.775,0.862
			c-0.002,0.296-0.448,0.752-0.781,0.844c-0.531,0.146-1.159,0.16-1.691,0.022c-0.417-0.109-0.994-0.477-1.076-0.827
			c-0.169-0.727,0.434-0.945,1.078-0.95c0.244-0.001,0.489,0,0.733,0C253.243-241.979,253.243-241.973,253.243-241.965z"/>
		<path d="M246.364-348.585c-0.35,0.389-0.638,1.006-1.061,1.117c-0.825,0.218-1.079-0.485-1.173-1.175
			c-0.038-0.277-0.121-0.617-0.005-0.832c0.263-0.486,0.636-0.912,0.965-1.363c0.315,0.438,0.659,0.859,0.933,1.321
			c0.112,0.191,0.074,0.472,0.104,0.713C246.206-348.73,246.285-348.658,246.364-348.585z"/>
		<path d="M49.4-431.242c0.036,0.713-2.192,2.207-2.75,1.919c-0.2-0.104-0.51-0.432-0.485-0.469c0.475-0.718,0.903-1.513,1.544-2.05
			c0.26-0.217,1.01,0.127,1.523,0.262C49.33-431.555,49.371-431.309,49.4-431.242z"/>
		<path d="M49.857-426.449c-0.145,1.076-0.215,1.818-0.365,2.546c-0.031,0.148-0.381,0.346-0.551,0.317
			c-0.162-0.026-0.32-0.299-0.411-0.496c-0.212-0.463-0.423-0.933-0.56-1.42c-0.135-0.477-0.314-1.017-0.198-1.455
			c0.058-0.218,0.816-0.471,1.114-0.352C49.338-427.128,49.662-426.635,49.857-426.449z"/>
		<path d="M164.088-260.299c-0.166,0.142-0.744,0.74-0.824,0.68c-0.667-0.505-1.242-1.131-1.846-1.72
			c0.405-0.291,0.791-0.79,1.219-0.829C163.625-262.259,164.117-261.652,164.088-260.299z"/>
		<path d="M136.045-395.851c-1.228-0.041-1.99-0.792-1.88-1.681c0.042-0.336,0.457-0.625,0.702-0.936
			c0.643,0.585,1.303,1.154,1.886,1.793C136.788-396.635,136.201-396.029,136.045-395.851z"/>
		<path d="M285.331-195.644c0.747,0.662,1.444,1.218,2.041,1.865c0.107,0.117-0.114,0.795-0.327,0.889
			c-0.292,0.129-0.766,0.035-1.08-0.124c-0.401-0.204-0.746-0.544-1.068-0.872c-0.23-0.235-0.585-0.609-0.523-0.81
			C284.469-195.005,284.873-195.218,285.331-195.644z"/>
		<path d="M18.756-483.176c-0.089,2.184-0.915,2.897-2.259,2.279c-0.645-0.297-0.946-0.881-0.313-1.297
			C16.9-482.664,17.814-482.834,18.756-483.176z"/>
		<path d="M408.542-14.519c-1.066-0.226-1.646-0.606-1.508-1.46c0.071-0.438,0.563-0.808,0.865-1.209
			c0.576,0.508,1.152,1.015,1.729,1.522C409.266-15.283,408.903-14.901,408.542-14.519z"/>
		<path d="M397.072-210.63c0.172,0.177,0.645,0.459,0.787,0.859c0.192,0.538-1.045,1.581-1.887,1.565
			c-0.271-0.006-0.722-0.385-0.768-0.649C395.081-209.564,396.052-210.589,397.072-210.63z"/>
		<path d="M115.83-226.777c0.473,0.56,1.01,1.079,1.389,1.695c0.176,0.285,0.145,0.799,0.01,1.129
			c-0.057,0.142-0.757,0.231-0.92,0.08c-0.459-0.425-0.898-0.942-1.132-1.512c-0.146-0.356,0.093-0.871,0.159-1.315
			C115.5-226.726,115.666-226.752,115.83-226.777z"/>
		<path d="M459.269-133.65c-0.728-0.6-1.238-1.021-1.749-1.442c0.36-0.315,0.722-0.891,1.082-0.891
			c0.654,0.001,1.62-0.018,1.622,1.009C460.224-134.614,459.724-134.254,459.269-133.65z"/>
		<path d="M117.318-285.939c0.566,0.629,1.166,0.988,1.207,1.403c0.089,0.881-0.683,0.93-1.358,0.928
			c-0.677-0.002-1.333-0.213-1.167-0.988C116.092-285.021,116.698-285.336,117.318-285.939z"/>
		<path d="M203.846-377.535c0.709,0.83,1.205,1.35,1.582,1.945c0.039,0.063-0.863,0.88-0.934,0.826
			c-0.526-0.398-1.018-0.888-1.369-1.445C203.029-376.361,203.453-376.84,203.846-377.535z"/>
		<path d="M385.129-331.648c-0.707,0.618-1.104,0.965-1.501,1.312c-0.313-0.435-0.845-0.857-0.871-1.31
			c-0.023-0.381,0.542-0.797,0.847-1.197C384.009-332.525,384.414-332.208,385.129-331.648z"/>
		<path d="M383.805-301.449c-0.46-0.57-0.746-0.926-1.032-1.281c0.385-0.309,0.782-0.875,1.152-0.857
			c0.408,0.019,0.792,0.573,1.186,0.895C384.743-302.342,384.375-301.992,383.805-301.449z"/>
		<path d="M381.859-151.628c-0.579,0.538-0.938,0.871-1.298,1.205c-0.287-0.411-0.8-0.822-0.799-1.232
			c0.001-0.4,0.526-0.801,0.821-1.2C380.938-152.516,381.29-152.176,381.859-151.628z"/>
		<path d="M287.8-309.379c-0.549,0.543-0.878,0.868-1.207,1.193c-0.289-0.406-0.778-0.799-0.807-1.224
			c-0.024-0.354,0.489-0.745,0.765-1.12C286.906-310.202,287.262-309.875,287.8-309.379z"/>
		<path d="M362.642-352.016c-0.573,0.494-0.929,0.801-1.285,1.108c-0.289-0.46-0.697-0.895-0.809-1.396
			c-0.045-0.198,0.621-0.811,0.869-0.761C361.803-352.986,362.107-352.504,362.642-352.016z"/>
		<path d="M73.533-99.747c-0.551,0.45-0.947,1.006-1.239,0.955c-0.354-0.062-0.901-0.669-0.86-0.974
			c0.056-0.431,0.574-0.801,0.895-1.196C72.661-100.627,72.994-100.291,73.533-99.747z"/>
		<path d="M361.338-469.228c-0.579-0.58-0.933-0.935-1.286-1.289c0.36-0.304,0.747-0.872,1.076-0.841
			c0.398,0.038,0.848,0.531,1.067,0.939C362.276-470.268,361.765-469.799,361.338-469.228z"/>
		<path d="M123.262-190.374c-0.48-0.516-0.794-0.853-1.107-1.188c0.383-0.273,0.769-0.764,1.147-0.759
			c0.383,0.005,0.759,0.502,1.138,0.783C124.108-191.211,123.777-190.883,123.262-190.374z"/>
		<path d="M222.621-414.696c-0.482-0.564-0.785-0.92-1.088-1.275c0.413-0.288,0.813-0.768,1.244-0.799
			c0.3-0.021,0.9,0.577,0.897,0.895C223.672-415.541,223.112-415.211,222.621-414.696z"/>
		<path d="M177.556-392.487c-0.41-0.565-0.661-0.911-0.911-1.257c0.418-0.277,0.836-0.766,1.256-0.769
			c0.348-0.002,0.699,0.567,1.049,0.884C178.555-393.306,178.159-392.982,177.556-392.487z"/>
		<path d="M111.823-124.538c-0.458-0.624-0.928-0.988-0.924-1.348c0.003-0.287,0.611-0.82,0.902-0.789
			c0.401,0.043,0.756,0.515,1.13,0.803C112.637-125.517,112.34-125.16,111.823-124.538z"/>
		<path d="M226.35-323.859c-0.482,0.58-0.965,1.161-1.447,1.741c-0.274-0.235-0.775-0.46-0.787-0.708
			c-0.063-1.346,1.213-0.925,1.836-1.391C226.084-324.098,226.217-323.979,226.35-323.859z"/>
		<path d="M337.273-482.493c-0.403-0.546-0.908-0.95-0.842-1.208c0.086-0.331,0.654-0.783,0.968-0.75
			c0.401,0.043,0.757,0.52,1.132,0.809C338.182-483.324,337.833-483.005,337.273-482.493z"/>
		<path d="M368.735-240.026c-0.605,0.514-0.938,1.008-1.31,1.04c-0.267,0.023-0.843-0.594-0.817-0.887
			c0.031-0.374,0.472-0.871,0.846-1C367.688-240.953,368.121-240.454,368.735-240.026z"/>
		<path d="M224.033-473.25c-0.508,0.512-0.832,0.839-1.157,1.166c-0.262-0.348-0.744-0.706-0.728-1.04
			c0.02-0.386,0.479-0.75,0.746-1.124C223.211-473.97,223.528-473.691,224.033-473.25z"/>
		<path d="M230.19-35.191c0.225,0.407,0.634,0.822,0.617,1.219c-0.015,0.33-0.53,0.638-0.825,0.956
			c-0.297-0.308-0.813-0.599-0.837-0.927c-0.03-0.397,0.354-0.825,0.56-1.24C229.867-35.187,230.028-35.188,230.19-35.191z"/>
		<path d="M481.976-294.908c-0.596,0.513-0.916,0.992-1.297,1.047c-0.262,0.037-0.607-0.518-0.915-0.808
			c0.354-0.304,0.671-0.697,1.08-0.87C481.025-295.616,481.396-295.248,481.976-294.908z"/>
		<path d="M210.063-109.647c-0.672,0.4-1.082,0.837-1.376,0.769c-0.33-0.075-0.783-0.626-0.76-0.937
			c0.025-0.321,0.547-0.819,0.875-0.838C209.111-110.672,209.449-110.166,210.063-109.647z"/>
		<path d="M255.035-405.848c-0.222-0.352-0.646-0.726-0.611-1.049c0.039-0.348,0.51-0.648,0.791-0.971
			c0.301,0.308,0.792,0.585,0.847,0.932c0.051,0.32-0.364,0.716-0.573,1.078C255.337-405.854,255.187-405.851,255.035-405.848z"/>
		<path d="M225.824-245.811c-0.447-0.666-0.908-1.057-0.854-1.352c0.062-0.336,0.584-0.811,0.906-0.811
			c0.301-0.002,0.802,0.518,0.843,0.854C226.758-246.817,226.291-246.453,225.824-245.811z"/>
		<path d="M239.98-436.855c-0.378-0.691-0.758-1.076-0.721-1.415c0.031-0.291,0.539-0.53,0.836-0.792
			c0.281,0.318,0.729,0.611,0.789,0.967C240.928-437.832,240.464-437.484,239.98-436.855z"/>
		<path d="M468.53-226.237c0.421,0.663,0.828,1.023,0.811,1.363c-0.014,0.291-0.583,0.829-0.781,0.777
			c-0.354-0.094-0.776-0.51-0.858-0.863C467.642-225.216,468.086-225.589,468.53-226.237z"/>
		<path d="M193.822-249.078c-0.634,0.368-1.001,0.755-1.295,0.706c-0.316-0.053-0.564-0.515-0.843-0.798
			c0.318-0.281,0.608-0.726,0.965-0.788C192.904-250.003,193.248-249.533,193.822-249.078z"/>
		<path d="M422.334-224.769c-0.702,0.351-1.099,0.715-1.438,0.667c-0.286-0.04-0.768-0.655-0.697-0.844
			c0.127-0.343,0.578-0.726,0.934-0.77C421.398-225.747,421.727-225.272,422.334-224.769z"/>
		<path d="M197.625-361.176c-0.351,0.223-0.707,0.623-1.049,0.611c-0.285-0.009-0.77-0.498-0.773-0.78
			c-0.004-0.3,0.434-0.821,0.718-0.851c0.341-0.034,0.726,0.35,1.091,0.553C197.615-361.486,197.62-361.332,197.625-361.176z"/>
		<path d="M146.33-155.113c-0.604,0.397-0.982,0.833-1.238,0.77c-0.355-0.087-0.618-0.549-0.92-0.85
			c0.324-0.276,0.622-0.715,0.982-0.774C145.416-156.011,145.76-155.551,146.33-155.113z"/>
		<path d="M109.698-187.323c-0.35,0.23-0.703,0.643-1.048,0.635c-0.289-0.006-0.773-0.487-0.793-0.781
			c-0.018-0.283,0.428-0.807,0.716-0.843c0.341-0.042,0.733,0.326,1.103,0.517C109.684-187.639,109.69-187.48,109.698-187.323z"/>
		<path d="M201.967-116.637c-0.682,0.375-1.092,0.778-1.344,0.696c-0.342-0.112-0.719-0.569-0.775-0.927
			c-0.032-0.204,0.554-0.719,0.843-0.704C201.03-117.556,201.35-117.117,201.967-116.637z"/>
		<path d="M247.479-113.649c-0.692,0.394-1.072,0.78-1.416,0.751c-0.285-0.024-0.789-0.615-0.73-0.82
			c0.1-0.343,0.543-0.746,0.895-0.805C246.493-114.568,246.843-114.117,247.479-113.649z"/>
		<path d="M372.832-110.747c-0.693,0.453-1.046,0.857-1.392,0.853c-0.275-0.004-0.542-0.512-0.813-0.796
			c0.313-0.287,0.59-0.712,0.955-0.813C371.817-111.569,372.185-111.16,372.832-110.747z"/>
		<path d="M36.125-104.607c-0.596,0.405-0.961,0.843-1.23,0.79c-0.356-0.069-0.638-0.523-0.951-0.812
			c0.32-0.279,0.613-0.722,0.971-0.783C35.186-105.458,35.54-105.019,36.125-104.607z"/>
		<path d="M289.611-33.606c-0.42-0.578-0.87-0.935-0.82-1.195c0.068-0.356,0.517-0.642,0.802-0.957
			c0.292,0.311,0.745,0.587,0.82,0.944C290.468-34.556,290.021-34.191,289.611-33.606z"/>
		<path d="M318.214-345.087c-0.683,0.38-1.092,0.786-1.344,0.704c-0.345-0.111-0.571-0.592-0.849-0.914
			c0.303-0.26,0.613-0.733,0.906-0.723C317.268-346.006,317.591-345.566,318.214-345.087z"/>
		<path d="M154.151-343.428c0.409,0.578,0.853,0.938,0.799,1.195c-0.075,0.355-0.521,0.634-0.81,0.945
			c-0.289-0.313-0.741-0.592-0.814-0.949C153.273-342.49,153.729-342.85,154.151-343.428z"/>
		<path d="M47.958-319.599c-0.399-0.691-0.791-1.067-0.759-1.404c0.027-0.294,0.53-0.544,0.823-0.813
			c0.284,0.315,0.729,0.6,0.798,0.958C48.869-320.599,48.423-320.243,47.958-319.599z"/>
		<path d="M114.643-222.146c0.434,0.603,0.856,0.938,0.868,1.286c0.009,0.265-0.505,0.547-0.787,0.821
			c-0.285-0.321-0.681-0.604-0.811-0.979C113.847-221.213,114.252-221.569,114.643-222.146z"/>
		<path d="M412.847-353.043c-0.376-0.615-0.801-1.017-0.725-1.258c0.109-0.342,0.588-0.567,0.908-0.843
			c0.244,0.308,0.672,0.61,0.682,0.926C413.722-353.922,413.291-353.611,412.847-353.043z"/>
		<path d="M423.049-147.77c-0.438-0.658-0.854-1.011-0.842-1.349c0.01-0.295,0.503-0.573,0.782-0.858
			c0.301,0.3,0.76,0.562,0.849,0.914C423.901-148.807,423.474-148.428,423.049-147.77z"/>
		<path d="M140.004-86.165c-0.363,0.203-0.744,0.587-1.087,0.555c-0.289-0.027-0.743-0.538-0.738-0.83
			c0.005-0.287,0.481-0.78,0.771-0.796c0.344-0.018,0.707,0.38,1.063,0.597C140.01-86.481,140.007-86.323,140.004-86.165z"/>
		<path d="M363.406-38.745c-0.344,0.238-0.688,0.657-1.032,0.656c-0.286,0-0.779-0.477-0.8-0.771
			c-0.021-0.286,0.411-0.819,0.697-0.858c0.34-0.047,0.735,0.318,1.107,0.505C363.388-39.057,363.397-38.9,363.406-38.745z"/>
		<path d="M481.961-304.648c-0.686,0.377-1.099,0.782-1.347,0.699c-0.345-0.117-0.567-0.6-0.842-0.926
			c0.306-0.256,0.62-0.727,0.913-0.713C481.024-305.572,481.344-305.131,481.961-304.648z"/>
		<path d="M484.62-208.487c-0.37-0.608-0.76-0.965-0.719-1.26c0.045-0.312,0.501-0.563,0.777-0.842
			c0.288,0.307,0.743,0.583,0.808,0.932C485.534-209.404,485.064-209.056,484.62-208.487z"/>
		<path d="M284.544-183.224c-0.411-0.589-0.86-0.964-0.798-1.208c0.088-0.345,0.555-0.594,0.859-0.884
			c0.261,0.291,0.704,0.566,0.731,0.879C285.363-184.143,284.951-183.81,284.544-183.224z"/>
		<path d="M246.137-432.895c0.588,0.692,1.058,1.247,1.528,1.801c-0.173,0.127-0.46,0.395-0.503,0.359
			c-0.541-0.436-1.058-0.904-1.539-1.405C245.59-432.176,245.881-432.524,246.137-432.895z"/>
		<path d="M73.499-440.874c-0.313,0.138-0.67,0.438-0.931,0.371c-0.349-0.09-0.624-0.466-0.931-0.72
			c0.269-0.235,0.556-0.682,0.8-0.66c0.385,0.035,0.74,0.387,1.109,0.604C73.531-441.145,73.515-441.009,73.499-440.874z"/>
		<path d="M345.292-253.451c0.366,0.642,0.755,1.018,0.697,1.305c-0.063,0.305-0.56,0.742-0.841,0.723
			c-0.278-0.019-0.712-0.522-0.729-0.833C344.403-252.549,344.84-252.867,345.292-253.451z"/>
		<path d="M83.476-417.195c0.374,0.611,0.801,1.016,0.722,1.25c-0.113,0.34-0.592,0.558-0.914,0.828
			c-0.244-0.307-0.668-0.608-0.677-0.922C82.598-416.332,83.031-416.637,83.476-417.195z"/>
		<path d="M476.855-279.386c-0.67,0.374-1.061,0.768-1.329,0.697c-0.303-0.079-0.642-0.562-0.68-0.899
			c-0.023-0.205,0.503-0.67,0.768-0.658C475.934-280.233,476.237-279.84,476.855-279.386z"/>
		<path d="M214.052-387.592c-0.642,0.383-1.008,0.777-1.295,0.727c-0.309-0.057-0.763-0.542-0.747-0.818
			c0.016-0.284,0.502-0.729,0.815-0.757C213.115-388.467,213.445-388.036,214.052-387.592z"/>
		<path d="M53.063-14.393c-0.406-0.654-0.811-1.019-0.76-1.3c0.056-0.303,0.512-0.675,0.843-0.733
			c0.199-0.035,0.689,0.468,0.694,0.735C53.848-15.369,53.477-15.041,53.063-14.393z"/>
		<path d="M293.905-164.266c-0.65,0.411-1.012,0.817-1.292,0.768c-0.304-0.054-0.676-0.506-0.738-0.837
			c-0.036-0.196,0.462-0.688,0.73-0.695C292.925-165.04,293.255-164.673,293.905-164.266z"/>
		<path d="M41.653-455.156c-0.128-0.375-0.409-0.782-0.342-1.119c0.063-0.322,0.486-0.789,0.758-0.794
			c0.298-0.005,0.603,0.448,0.903,0.7c-0.23,0.275-0.461,0.551-0.691,0.825C42.072-455.414,41.862-455.285,41.653-455.156z"/>
		<path d="M412.003-370.411c-0.512,0.339-0.832,0.716-1.103,0.683c-0.286-0.033-0.524-0.459-0.783-0.715
			c0.284-0.269,0.537-0.687,0.863-0.754C411.201-371.244,411.525-370.799,412.003-370.411z"/>
		<path d="M438.341-4.482c-0.572,0.337-0.91,0.692-1.223,0.671c-0.259-0.018-0.487-0.479-0.729-0.743
			c0.285-0.261,0.544-0.671,0.867-0.731C437.486-5.329,437.805-4.901,438.341-4.482z"/>
		<path d="M365.484-261.327c-0.477,0.366-0.805,0.794-1.023,0.745c-0.319-0.072-0.56-0.488-0.834-0.759
			c0.262-0.244,0.508-0.657,0.789-0.683C364.685-262.049,364.991-261.67,365.484-261.327z"/>
		<path d="M243.049-467.686c-0.235-0.488-0.483-0.854-0.427-0.909c0.475-0.466,1.003-0.878,1.532-1.282
			c0.017-0.013,0.362,0.336,0.344,0.361C244.086-468.958,243.645-468.422,243.049-467.686z"/>
		<path d="M239.13-397.704c-0.5,0.329-0.857,0.729-1.07,0.663c-0.312-0.096-0.52-0.527-0.771-0.814
			c0.276-0.225,0.55-0.617,0.831-0.622C238.388-398.481,238.663-398.083,239.13-397.704z"/>
		<path d="M43.037-423.131c0.32,0.549,0.681,0.891,0.632,1.157c-0.05,0.278-0.497,0.483-0.77,0.721
			c-0.235-0.275-0.644-0.544-0.654-0.827C42.236-422.352,42.642-422.637,43.037-423.131z"/>
		<path d="M127.791-355.936c-0.41,0.35-0.684,0.582-0.957,0.814c-0.218-0.336-0.579-0.662-0.604-1.011
			c-0.016-0.226,0.463-0.486,0.719-0.731C127.19-356.597,127.432-356.33,127.791-355.936z"/>
		<path d="M51.006-88.38c-0.336-0.52-0.705-0.84-0.667-1.1c0.04-0.274,0.47-0.491,0.729-0.732c0.242,0.26,0.652,0.507,0.674,0.785
			C51.764-89.166,51.374-88.872,51.006-88.38z"/>
		<path d="M322.919-466.225c0.338,0.605,0.645,0.904,0.613,1.162c-0.04,0.326-0.357,0.617-0.555,0.924
			c-0.209-0.252-0.569-0.493-0.588-0.76C322.366-465.217,322.634-465.557,322.919-466.225z"/>
		<path d="M409.947-276.387c-0.379-0.512-0.733-0.783-0.751-1.076c-0.015-0.235,0.414-0.721,0.583-0.695
			c0.307,0.049,0.736,0.357,0.796,0.628C410.63-277.279,410.27-276.936,409.947-276.387z"/>
		<path d="M78.396-218.671c-0.371-0.541-0.749-0.85-0.722-1.116c0.029-0.276,0.449-0.513,0.699-0.767
			c0.23,0.231,0.639,0.455,0.648,0.695C79.033-219.558,78.719-219.244,78.396-218.671z"/>
		<path d="M80.338-204.679c0.34,0.442,0.732,0.749,0.684,0.941c-0.076,0.297-0.455,0.516-0.707,0.767
			c-0.219-0.241-0.59-0.47-0.613-0.729C79.68-203.945,80.022-204.223,80.338-204.679z"/>
		<path d="M238.084-442.253c0.316,0.501,0.648,0.8,0.641,1.09c-0.006,0.226-0.512,0.66-0.664,0.609
			c-0.293-0.099-0.627-0.446-0.688-0.743C237.331-441.501,237.723-441.793,238.084-442.253z"/>
		<path d="M370.484-327.032c-0.465,0.362-0.761,0.756-0.965,0.713c-0.299-0.063-0.642-0.401-0.744-0.698
			c-0.05-0.147,0.392-0.654,0.617-0.658C369.685-327.682,369.984-327.349,370.484-327.032z"/>
		<path d="M90.469-236.551c0.365-0.371,0.73-0.741,1.096-1.112c0.178,0.187,0.524,0.521,0.51,0.539
			c-0.342,0.387-0.722,0.74-1.096,1.099C90.809-236.2,90.639-236.376,90.469-236.551z"/>
		<path d="M221.221-486.795c-0.341-0.314-0.682-0.63-1.023-0.945c0.233-0.217,0.466-0.433,0.699-0.649
			c0.291,0.371,0.582,0.741,0.873,1.112C221.586-487.116,221.404-486.955,221.221-486.795z"/>
		<path d="M436.136-154.184c-0.404,0.341-0.684,0.745-0.887,0.709c-0.299-0.052-0.543-0.418-0.811-0.65
			c0.252-0.25,0.471-0.631,0.766-0.703C435.404-154.878,435.711-154.495,436.136-154.184z"/>
		<path d="M235.1-215.726c-0.584,0.311-0.908,0.622-1.197,0.593c-0.227-0.022-0.582-0.478-0.566-0.72
			c0.014-0.236,0.436-0.635,0.662-0.624C234.29-216.464,234.566-216.113,235.1-215.726z"/>
		<path d="M325.541-183.378c-0.61,0.241-0.938,0.493-1.211,0.443c-0.257-0.047-0.456-0.411-0.682-0.635
			c0.295-0.152,0.585-0.408,0.887-0.424C324.769-184.005,325.018-183.715,325.541-183.378z"/>
		<path d="M160.244-305.761c0.315,0.459,0.659,0.739,0.636,0.983c-0.024,0.26-0.397,0.485-0.618,0.727
			c-0.25-0.253-0.629-0.474-0.703-0.77C159.511-305.015,159.904-305.318,160.244-305.761z"/>
		<path d="M244.109-475.578c-0.457,0.322-0.775,0.703-0.969,0.646c-0.293-0.084-0.499-0.473-0.742-0.732
			c0.251-0.211,0.493-0.573,0.755-0.588C243.398-476.268,243.664-475.912,244.109-475.578z"/>
		<path d="M61.142-19.691c0.333,0.437,0.69,0.702,0.679,0.949c-0.012,0.26-0.379,0.503-0.592,0.753
			c-0.26-0.243-0.65-0.448-0.735-0.741C60.438-18.924,60.822-19.244,61.142-19.691z"/>
		<path d="M231.904-481.65c0.365,0.43,0.775,0.715,0.736,0.91c-0.059,0.299-0.43,0.537-0.668,0.801
			c-0.232-0.229-0.617-0.438-0.654-0.693C231.283-480.879,231.611-481.176,231.904-481.65z"/>
		<path d="M37.885-26.853c-0.42,0.358-0.709,0.772-0.904,0.732c-0.3-0.062-0.534-0.437-0.796-0.679
			c0.231-0.233,0.441-0.623,0.698-0.657C37.129-27.487,37.423-27.149,37.885-26.853z"/>
		<path d="M444.33-189.509c0.287,0.466,0.648,0.807,0.581,0.998c-0.101,0.286-0.501,0.467-0.774,0.692
			c-0.196-0.262-0.549-0.525-0.546-0.785C443.595-188.85,443.969-189.091,444.33-189.509z"/>
		<path d="M256.17-283.552c-0.291-0.495-0.614-0.801-0.57-1.038c0.048-0.251,0.443-0.438,0.688-0.652
			c0.214,0.246,0.584,0.484,0.596,0.739C256.895-284.262,256.529-284.004,256.17-283.552z"/>
		<path d="M219.848-75.366c-0.293-0.436-0.631-0.72-0.6-0.954c0.033-0.248,0.488-0.67,0.637-0.623
			c0.294,0.091,0.629,0.422,0.701,0.714C220.629-76.055,220.205-75.765,219.848-75.366z"/>
		<path d="M474.503-55.907c-0.365,0.234-0.656,0.523-0.758,0.467c-0.306-0.167-0.537-0.47-0.798-0.72
			c0.227-0.186,0.503-0.558,0.67-0.514C473.901-56.6,474.117-56.264,474.503-55.907z"/>
		<path d="M47.287-50.263c-0.365,0.678-0.521,1.146-0.83,1.466c-0.158,0.165-0.592,0.066-0.9,0.087
			c0.063-0.277,0.032-0.673,0.205-0.808C46.117-49.796,46.582-49.935,47.287-50.263z"/>
		<path d="M24.705-46.036c-0.286-0.452-0.613-0.74-0.58-0.979c0.035-0.253,0.412-0.458,0.641-0.684
			c0.24,0.256,0.609,0.484,0.674,0.778C25.48-46.734,25.066-46.449,24.705-46.036z"/>
		<path d="M158.174-194.658c-0.449,0.359-0.709,0.728-0.949,0.716c-0.254-0.014-0.666-0.378-0.682-0.61
			c-0.015-0.228,0.355-0.635,0.608-0.681C157.388-195.275,157.691-194.948,158.174-194.658z"/>
		<path d="M398.748-1.479c-0.498,0.308-0.769,0.603-1.036,0.599c-0.207-0.003-0.604-0.425-0.568-0.579
			c0.063-0.273,0.369-0.641,0.617-0.678C397.986-2.17,398.27-1.817,398.748-1.479z"/>
		<path d="M176.607-486.566c0.309,0.422,0.492,0.674,0.678,0.926c-0.268,0.18-0.527,0.479-0.806,0.498
			c-0.193,0.014-0.604-0.392-0.577-0.551C175.947-485.958,176.268-486.175,176.607-486.566z"/>
		<path d="M56.086-287.559c-0.5,0.313-0.803,0.648-1.029,0.604c-0.247-0.05-0.531-0.428-0.59-0.707
			c-0.029-0.145,0.396-0.547,0.609-0.541C55.342-288.195,55.6-287.889,56.086-287.559z"/>
		<path d="M25.755-336.053c-0.509,0.297-0.821,0.625-1.048,0.574c-0.245-0.056-0.518-0.447-0.566-0.729
			c-0.025-0.147,0.414-0.537,0.624-0.523C25.031-336.713,25.28-336.398,25.755-336.053z"/>
		<path d="M2.454-212.764c0.354,0.47,0.674,0.712,0.696,0.979c0.018,0.211-0.364,0.658-0.51,0.635
			c-0.284-0.046-0.682-0.308-0.742-0.554C1.842-211.929,2.165-212.249,2.454-212.764z"/>
		<path d="M484.653-212.861c-0.453,0.359-0.716,0.726-0.946,0.706c-0.247-0.021-0.574-0.373-0.65-0.642
			c-0.043-0.153,0.334-0.594,0.542-0.607C483.864-213.423,484.149-213.14,484.653-212.861z"/>
		<path d="M394.665-452.385c-0.295-0.473-0.627-0.771-0.585-1.002c0.046-0.248,0.448-0.607,0.681-0.597
			c0.226,0.011,0.589,0.421,0.602,0.671C395.374-453.076,395.011-452.819,394.665-452.385z"/>
		<path d="M294.643-75.328c-0.489,0.335-0.776,0.683-1.005,0.647c-0.249-0.04-0.549-0.407-0.616-0.684
			c-0.035-0.146,0.373-0.564,0.583-0.566C293.872-75.934,294.143-75.639,294.643-75.328z"/>
		<path d="M52.005-475.432c-0.286-0.535-0.584-0.84-0.544-1.089c0.041-0.256,0.414-0.458,0.641-0.683
			c0.199,0.248,0.543,0.492,0.555,0.748C52.667-476.199,52.342-475.93,52.005-475.432z"/>
		<path d="M456.295-342.1c0.356,0.404,0.723,0.646,0.696,0.829c-0.041,0.274-0.315,0.601-0.575,0.72
			c-0.122,0.057-0.612-0.304-0.63-0.503C455.763-341.317,456.038-341.608,456.295-342.1z"/>
		<path d="M436.101-308.757c-0.477,0.277-0.753,0.563-1.016,0.552c-0.2-0.01-0.582-0.478-0.532-0.6
			c0.107-0.265,0.415-0.556,0.687-0.609C435.42-309.449,435.679-309.096,436.101-308.757z"/>
		<path d="M214.73-397.716c-0.451,0.29-0.737,0.608-0.916,0.558c-0.262-0.077-0.446-0.418-0.664-0.646
			c0.207-0.195,0.424-0.556,0.621-0.546C214.033-398.336,214.281-398.033,214.73-397.716z"/>
		<path d="M388.675-282.559c-0.32-0.477-0.66-0.762-0.627-0.992c0.035-0.242,0.402-0.538,0.673-0.602
			c0.146-0.034,0.557,0.371,0.556,0.576C389.274-283.31,388.981-283.045,388.675-282.559z"/>
		<path d="M381.474-217.894c-0.286-0.492-0.613-0.809-0.556-1.022c0.063-0.24,0.463-0.497,0.742-0.53
			c0.156-0.019,0.532,0.416,0.511,0.615C382.143-218.567,381.823-218.335,381.474-217.894z"/>
	</g>
</pattern>
<pattern  x="-1586.169" y="-571" width="490.25" height="490.25" patternUnits="userSpaceOnUse" id="Unnamed_Pattern_8" viewBox="0 -490.25 490.25 490.25" overflow="visible">
	<g>
		<polygon fill="none" points="0,-490.25 490.25,-490.25 490.25,0 0,0 		"/>
		<path fill="#FFFFFF" d="M180.657-490.25c0.304,0.519,0.681,1.01,0.886,1.564c0.152,0.41,0.223,1.246,0.085,1.303
			c-0.673,0.279-1.429,0.475-2.151,0.46c-0.311-0.007-0.827-0.566-0.871-0.922c-0.098-0.786,0.046-1.602,0.091-2.405
			C179.35-490.25,180.004-490.25,180.657-490.25z"/>
		<path fill="#FFFFFF" d="M490.25-102.707c-0.335-0.131-0.813-0.167-0.974-0.412c-0.318-0.485-0.461-1.085-0.677-1.638
			c0.55-0.134,1.101-0.268,1.65-0.401C490.25-104.342,490.25-103.524,490.25-102.707z"/>
		<path fill="#FFFFFF" d="M0-105.403c0.848-0.12,1.333,0.227,1.283,1.103c-0.043,0.766-0.345,1.33-1.283,1.104
			C0-103.933,0-104.668,0-105.403z"/>
		<path fill="#FFFFFF" d="M122.806-163.377c0.861,0.5,1.727,0.993,2.577,1.511c0.118,0.072,0.214,0.268,0.224,0.413
			c0.068,0.964,0.178,1.932,0.141,2.894c-0.038,0.976-1.816,2.096-2.861,1.89c-1.742-0.342-2.334-1.189-2.083-2.917
			c0.036-0.25-0.088-0.527-0.154-0.788c-0.144-0.568-0.597-1.338-0.381-1.655c0.347-0.51,1.125-0.736,1.742-1.042
			c0.163-0.081,0.4-0.013,0.603-0.013C122.677-163.183,122.742-163.279,122.806-163.377z"/>
		<path fill="#FFFFFF" d="M167.349-262.934c-0.956-0.623-1.721-1.074-2.429-1.602c-0.348-0.258-0.54-0.73-0.893-0.979
			c-0.873-0.615-0.873-1.548-0.346-2.115c0.387-0.416,1.371-0.461,2.048-0.367c0.626,0.088,1.36,0.443,1.754,0.922
			c0.669,0.811,1.22,1.773,1.553,2.764C169.109-264.094,168.063-263.5,167.349-262.934z"/>
		<path fill="#FFFFFF" d="M410.513-22.612c1.121-0.018,2.188,0.021,2.251,1.564c0.007,0.172,0.281,0.372,0.474,0.492
			c0.997,0.623,1.104,1.115,0.436,2.148c-0.414,0.639-1.569,0.878-2.161,0.328c-0.915-0.851-1.772-1.773-2.577-2.729
			c-0.271-0.323-0.544-0.974-0.396-1.239c0.179-0.319,0.797-0.416,1.242-0.553C410.006-22.669,410.268-22.612,410.513-22.612z"/>
		<path fill="#FFFFFF" d="M27.67-87.161c0.292-0.686,0.409-1.738,0.914-1.979c1.074-0.514,1.621,0.482,2.099,1.323
			c0.135,0.239,0.392,0.407,0.583,0.616c0.494,0.542,0.549,1.065-0.07,1.563c-0.185,0.148-0.414,0.284-0.52,0.481
			c-0.264,0.488-0.196,1.402-1.123,1.037c-0.848-0.334-1.797-0.705-1.631-1.955c0.042-0.319,0.006-0.649,0.006-0.976
			C27.842-87.088,27.756-87.125,27.67-87.161z"/>
		<path fill="#FFFFFF" d="M104.574-192.588c1.414-0.172,2.057,0.931,2.737,1.685c0.734,0.816,0.03,2.153-1.077,2.211
			c-1.149,0.06-2.501,0.36-2.563-1.495c-0.002-0.075-0.042-0.171-0.098-0.219c-0.496-0.437-1.15-0.938-0.598-1.599
			C103.29-192.382,104.027-192.405,104.574-192.588z"/>
		<path fill="#FFFFFF" d="M423.967-244.215c1.028-0.854,2.244-0.602,2.81,0.684c0.504,1.146-0.786,1.342-1.208,1.991
			c-0.112,0.174-0.918,0.158-1.143-0.052c-0.697-0.651-1.293-1.421-1.867-2.189c-0.113-0.15,0.042-0.501,0.074-0.76
			C423.03-244.443,423.428-244.347,423.967-244.215z"/>
		<path fill="#FFFFFF" d="M276.11-331.125c-0.345,0.37-0.82,1.166-1.521,1.549c-0.677,0.369-0.959-0.373-0.998-0.968
			c-0.051-0.759,0.079-1.534-0.807-1.979c-0.155-0.078-0.224-0.662-0.099-0.875c0.15-0.259,0.535-0.486,0.845-0.525
			C274.495-334.043,276.075-332.563,276.11-331.125z"/>
		<path fill="#FFFFFF" d="M40.781-440.727c1.05,0.757,1.999,1.38,2.854,2.112c0.152,0.13-0.025,1.015-0.158,1.043
			c-0.597,0.128-1.258,0.185-1.848,0.052c-0.624-0.141-1.242-0.456-1.766-0.831c-0.33-0.235-0.759-0.923-0.662-1.057
			C39.54-439.871,40.088-440.181,40.781-440.727z"/>
		<path fill="#FFFFFF" d="M80.258-430.222c0.479,0.422,1.311,0.804,1.363,1.273c0.111,0.993-0.943,1.761-1.913,1.732
			c-1.048-0.03-1.298-0.671-1.266-1.55C78.482-429.811,79.163-430.023,80.258-430.222z"/>
		<path fill="#FFFFFF" d="M211.65-380.598c0.994-0.689,2.104-1.123,3.329-0.756c0.306,0.092,0.573,0.813,0.57,1.244
			c-0.001,0.254-0.613,0.76-0.871,0.713c-1.019-0.184-2.007-0.542-3.006-0.836C211.665-380.354,211.658-380.476,211.65-380.598z"/>
		<path fill="#FFFFFF" d="M262.654-238.313c0.579,0.546,1.329,1.16,1.284,1.224c-0.456,0.658-1.041,1.227-1.59,1.819
			c-0.485-0.58-0.971-1.16-1.456-1.74C261.409-237.393,261.927-237.775,262.654-238.313z"/>
		<path fill="#FFFFFF" d="M115.78-108.964c0.603,0.625,1.187,0.958,1.296,1.406c0.177,0.731-0.751,1.758-1.382,1.722
			c-1.031-0.06-1.316-0.895-1.239-1.642C114.502-107.929,115.171-108.314,115.78-108.964z"/>
		<path fill="#FFFFFF" d="M6.304-485.897c0.179-0.39,0.313-1.103,0.744-1.464c0.248-0.209,1.069,0.015,1.461,0.289
			c0.569,0.396,1.306,0.941,0.808,1.789c-0.145,0.245-0.839,0.326-1.223,0.234C7.53-485.185,7.02-485.543,6.304-485.897z"/>
		<path fill="#FFFFFF" d="M253.243-241.965c0.325,0,0.713-0.111,0.962,0.027c0.335,0.187,0.778,0.567,0.775,0.862
			c-0.002,0.296-0.448,0.752-0.781,0.844c-0.531,0.146-1.159,0.16-1.691,0.022c-0.417-0.109-0.994-0.477-1.076-0.827
			c-0.169-0.727,0.434-0.945,1.078-0.95c0.244-0.001,0.489,0,0.733,0C253.243-241.979,253.243-241.973,253.243-241.965z"/>
		<path fill="#FFFFFF" d="M246.364-348.585c-0.35,0.389-0.638,1.006-1.061,1.117c-0.825,0.218-1.079-0.485-1.173-1.175
			c-0.038-0.277-0.121-0.617-0.005-0.832c0.263-0.486,0.636-0.912,0.965-1.363c0.315,0.438,0.659,0.859,0.933,1.321
			c0.112,0.191,0.074,0.472,0.104,0.713C246.206-348.73,246.285-348.658,246.364-348.585z"/>
		<path fill="#FFFFFF" d="M49.401-431.242c0.036,0.713-2.193,2.207-2.75,1.919c-0.201-0.104-0.511-0.432-0.486-0.469
			c0.475-0.718,0.903-1.513,1.544-2.05c0.26-0.217,1.009,0.127,1.523,0.262C49.331-431.555,49.371-431.309,49.401-431.242z"/>
		<path fill="#FFFFFF" d="M49.857-426.449c-0.144,1.076-0.214,1.818-0.365,2.546c-0.031,0.148-0.381,0.346-0.551,0.317
			c-0.162-0.026-0.32-0.299-0.411-0.496c-0.212-0.463-0.423-0.933-0.56-1.42c-0.134-0.477-0.314-1.017-0.198-1.455
			c0.058-0.218,0.816-0.471,1.115-0.352C49.338-427.128,49.663-426.635,49.857-426.449z"/>
		<path fill="#FFFFFF" d="M164.088-260.299c-0.166,0.142-0.744,0.74-0.824,0.68c-0.667-0.505-1.242-1.131-1.846-1.72
			c0.405-0.291,0.791-0.79,1.219-0.829C163.625-262.259,164.117-261.652,164.088-260.299z"/>
		<path fill="#FFFFFF" d="M136.045-395.851c-1.228-0.041-1.991-0.792-1.88-1.681c0.042-0.336,0.457-0.625,0.702-0.936
			c0.643,0.585,1.303,1.154,1.886,1.793C136.788-396.635,136.202-396.029,136.045-395.851z"/>
		<path fill="#FFFFFF" d="M285.331-195.644c0.747,0.662,1.444,1.218,2.041,1.865c0.107,0.117-0.114,0.795-0.327,0.889
			c-0.292,0.129-0.766,0.035-1.08-0.124c-0.401-0.204-0.746-0.544-1.068-0.872c-0.23-0.235-0.585-0.609-0.523-0.81
			C284.469-195.005,284.873-195.218,285.331-195.644z"/>
		<path fill="#FFFFFF" d="M18.756-483.176c-0.089,2.184-0.916,2.897-2.259,2.279c-0.645-0.297-0.947-0.881-0.313-1.297
			C16.9-482.664,17.814-482.834,18.756-483.176z"/>
		<path fill="#FFFFFF" d="M408.542-14.519c-1.066-0.226-1.646-0.606-1.508-1.46c0.071-0.438,0.563-0.808,0.865-1.209
			c0.576,0.508,1.152,1.015,1.729,1.522C409.266-15.283,408.903-14.901,408.542-14.519z"/>
		<path fill="#FFFFFF" d="M397.072-210.63c0.172,0.177,0.645,0.459,0.787,0.859c0.192,0.538-1.045,1.581-1.887,1.565
			c-0.271-0.006-0.722-0.385-0.768-0.649C395.081-209.564,396.052-210.589,397.072-210.63z"/>
		<path fill="#FFFFFF" d="M115.831-226.777c0.473,0.56,1.009,1.079,1.389,1.695c0.176,0.285,0.144,0.799,0.009,1.129
			c-0.057,0.142-0.757,0.231-0.919,0.08c-0.459-0.425-0.899-0.942-1.132-1.512c-0.146-0.356,0.093-0.871,0.159-1.315
			C115.5-226.726,115.666-226.752,115.831-226.777z"/>
		<path fill="#FFFFFF" d="M459.269-133.65c-0.728-0.6-1.238-1.021-1.749-1.442c0.36-0.315,0.722-0.891,1.082-0.891
			c0.654,0.001,1.62-0.018,1.622,1.009C460.224-134.614,459.724-134.254,459.269-133.65z"/>
		<path fill="#FFFFFF" d="M117.318-285.939c0.567,0.629,1.166,0.988,1.207,1.403c0.089,0.881-0.683,0.93-1.358,0.928
			c-0.676-0.002-1.333-0.213-1.167-0.988C116.092-285.021,116.698-285.336,117.318-285.939z"/>
		<path fill="#FFFFFF" d="M203.846-377.535c0.709,0.83,1.205,1.35,1.582,1.945c0.039,0.063-0.863,0.88-0.934,0.826
			c-0.526-0.398-1.018-0.888-1.369-1.445C203.029-376.361,203.453-376.84,203.846-377.535z"/>
		<path fill="#FFFFFF" d="M385.129-331.648c-0.707,0.618-1.104,0.965-1.501,1.312c-0.313-0.435-0.845-0.857-0.871-1.31
			c-0.023-0.381,0.542-0.797,0.847-1.197C384.009-332.525,384.414-332.208,385.129-331.648z"/>
		<path fill="#FFFFFF" d="M383.805-301.449c-0.46-0.57-0.746-0.926-1.032-1.281c0.385-0.309,0.782-0.875,1.152-0.857
			c0.408,0.019,0.792,0.573,1.186,0.895C384.743-302.342,384.375-301.992,383.805-301.449z"/>
		<path fill="#FFFFFF" d="M381.859-151.628c-0.579,0.538-0.938,0.871-1.298,1.205c-0.287-0.411-0.8-0.822-0.799-1.232
			c0.001-0.4,0.526-0.801,0.821-1.2C380.938-152.516,381.29-152.176,381.859-151.628z"/>
		<path fill="#FFFFFF" d="M287.8-309.379c-0.549,0.543-0.878,0.868-1.207,1.193c-0.289-0.406-0.778-0.799-0.807-1.224
			c-0.024-0.354,0.489-0.745,0.765-1.12C286.906-310.202,287.262-309.875,287.8-309.379z"/>
		<path fill="#FFFFFF" d="M362.642-352.016c-0.573,0.494-0.929,0.801-1.285,1.108c-0.289-0.46-0.697-0.895-0.809-1.396
			c-0.045-0.198,0.621-0.811,0.869-0.761C361.803-352.986,362.107-352.504,362.642-352.016z"/>
		<path fill="#FFFFFF" d="M73.533-99.747c-0.55,0.45-0.946,1.006-1.239,0.955c-0.355-0.062-0.901-0.669-0.861-0.974
			c0.056-0.431,0.574-0.801,0.895-1.196C72.661-100.627,72.994-100.291,73.533-99.747z"/>
		<path fill="#FFFFFF" d="M361.338-469.228c-0.579-0.58-0.933-0.935-1.286-1.289c0.36-0.304,0.747-0.872,1.076-0.841
			c0.398,0.038,0.848,0.531,1.067,0.939C362.276-470.268,361.765-469.799,361.338-469.228z"/>
		<path fill="#FFFFFF" d="M123.262-190.374c-0.48-0.516-0.794-0.853-1.108-1.188c0.383-0.273,0.769-0.764,1.147-0.759
			c0.383,0.005,0.759,0.502,1.138,0.783C124.108-191.211,123.777-190.883,123.262-190.374z"/>
		<path fill="#FFFFFF" d="M222.621-414.696c-0.482-0.564-0.785-0.92-1.088-1.275c0.413-0.288,0.813-0.768,1.244-0.799
			c0.3-0.021,0.9,0.577,0.897,0.895C223.672-415.541,223.112-415.211,222.621-414.696z"/>
		<path fill="#FFFFFF" d="M177.556-392.487c-0.41-0.565-0.661-0.911-0.911-1.257c0.418-0.277,0.836-0.766,1.256-0.769
			c0.348-0.002,0.699,0.567,1.049,0.884C178.555-393.306,178.159-392.982,177.556-392.487z"/>
		<path fill="#FFFFFF" d="M111.823-124.538c-0.458-0.624-0.928-0.988-0.924-1.348c0.003-0.287,0.611-0.82,0.902-0.789
			c0.401,0.043,0.756,0.515,1.13,0.803C112.636-125.517,112.34-125.16,111.823-124.538z"/>
		<path fill="#FFFFFF" d="M226.35-323.859c-0.482,0.58-0.965,1.161-1.447,1.741c-0.274-0.235-0.775-0.46-0.787-0.708
			c-0.063-1.346,1.213-0.925,1.836-1.391C226.084-324.098,226.217-323.979,226.35-323.859z"/>
		<path fill="#FFFFFF" d="M337.273-482.493c-0.403-0.546-0.908-0.95-0.842-1.208c0.086-0.331,0.654-0.783,0.968-0.75
			c0.401,0.043,0.757,0.52,1.132,0.809C338.182-483.324,337.833-483.005,337.273-482.493z"/>
		<path fill="#FFFFFF" d="M368.735-240.026c-0.605,0.514-0.938,1.008-1.31,1.04c-0.267,0.023-0.843-0.594-0.817-0.887
			c0.031-0.374,0.472-0.871,0.846-1C367.688-240.953,368.121-240.454,368.735-240.026z"/>
		<path fill="#FFFFFF" d="M224.033-473.25c-0.508,0.512-0.832,0.839-1.157,1.166c-0.262-0.348-0.744-0.706-0.728-1.04
			c0.02-0.386,0.479-0.75,0.746-1.124C223.211-473.97,223.528-473.691,224.033-473.25z"/>
		<path fill="#FFFFFF" d="M230.19-35.191c0.225,0.407,0.634,0.822,0.617,1.219c-0.015,0.33-0.53,0.638-0.825,0.956
			c-0.297-0.308-0.813-0.599-0.837-0.927c-0.03-0.397,0.354-0.825,0.56-1.24C229.867-35.187,230.028-35.188,230.19-35.191z"/>
		<path fill="#FFFFFF" d="M481.976-294.908c-0.596,0.513-0.916,0.992-1.297,1.047c-0.262,0.037-0.607-0.518-0.915-0.808
			c0.354-0.304,0.671-0.697,1.08-0.87C481.025-295.616,481.396-295.248,481.976-294.908z"/>
		<path fill="#FFFFFF" d="M210.063-109.647c-0.672,0.4-1.082,0.837-1.376,0.769c-0.33-0.075-0.783-0.626-0.76-0.937
			c0.025-0.321,0.547-0.819,0.875-0.838C209.111-110.672,209.449-110.166,210.063-109.647z"/>
		<path fill="#FFFFFF" d="M255.035-405.848c-0.222-0.352-0.646-0.726-0.611-1.049c0.039-0.348,0.51-0.648,0.791-0.971
			c0.301,0.308,0.792,0.585,0.847,0.932c0.051,0.32-0.364,0.716-0.573,1.078C255.337-405.854,255.187-405.851,255.035-405.848z"/>
		<path fill="#FFFFFF" d="M225.824-245.811c-0.447-0.666-0.908-1.057-0.854-1.352c0.062-0.336,0.584-0.811,0.906-0.811
			c0.301-0.002,0.802,0.518,0.843,0.854C226.758-246.817,226.291-246.453,225.824-245.811z"/>
		<path fill="#FFFFFF" d="M239.98-436.855c-0.378-0.691-0.758-1.076-0.721-1.415c0.031-0.291,0.539-0.53,0.836-0.792
			c0.281,0.318,0.729,0.611,0.789,0.967C240.928-437.832,240.464-437.484,239.98-436.855z"/>
		<path fill="#FFFFFF" d="M468.53-226.237c0.421,0.663,0.828,1.023,0.811,1.363c-0.014,0.291-0.583,0.829-0.781,0.777
			c-0.354-0.094-0.776-0.51-0.858-0.863C467.642-225.216,468.086-225.589,468.53-226.237z"/>
		<path fill="#FFFFFF" d="M193.822-249.078c-0.634,0.368-1.001,0.755-1.295,0.706c-0.316-0.053-0.564-0.515-0.843-0.798
			c0.318-0.281,0.608-0.726,0.965-0.788C192.904-250.003,193.248-249.533,193.822-249.078z"/>
		<path fill="#FFFFFF" d="M422.334-224.769c-0.702,0.351-1.099,0.715-1.438,0.667c-0.286-0.04-0.768-0.655-0.697-0.844
			c0.127-0.343,0.578-0.726,0.934-0.77C421.398-225.747,421.727-225.272,422.334-224.769z"/>
		<path fill="#FFFFFF" d="M197.625-361.176c-0.351,0.223-0.707,0.623-1.049,0.611c-0.285-0.009-0.77-0.498-0.773-0.78
			c-0.004-0.3,0.434-0.821,0.718-0.851c0.341-0.034,0.726,0.35,1.091,0.553C197.615-361.486,197.62-361.332,197.625-361.176z"/>
		<path fill="#FFFFFF" d="M146.33-155.113c-0.604,0.397-0.982,0.833-1.238,0.77c-0.355-0.087-0.618-0.549-0.92-0.85
			c0.325-0.276,0.623-0.715,0.983-0.774C145.416-156.011,145.759-155.551,146.33-155.113z"/>
		<path fill="#FFFFFF" d="M109.698-187.323c-0.35,0.23-0.703,0.643-1.047,0.635c-0.29-0.006-0.774-0.487-0.793-0.781
			c-0.018-0.283,0.427-0.807,0.715-0.843c0.341-0.042,0.733,0.326,1.102,0.517C109.683-187.639,109.69-187.48,109.698-187.323z"/>
		<path fill="#FFFFFF" d="M201.967-116.637c-0.682,0.375-1.092,0.778-1.344,0.696c-0.342-0.112-0.719-0.569-0.775-0.927
			c-0.032-0.204,0.554-0.719,0.843-0.704C201.03-117.556,201.35-117.117,201.967-116.637z"/>
		<path fill="#FFFFFF" d="M247.479-113.649c-0.692,0.394-1.072,0.78-1.416,0.751c-0.285-0.024-0.789-0.615-0.73-0.82
			c0.1-0.343,0.543-0.746,0.895-0.805C246.493-114.568,246.843-114.117,247.479-113.649z"/>
		<path fill="#FFFFFF" d="M372.832-110.747c-0.693,0.453-1.046,0.857-1.392,0.853c-0.275-0.004-0.542-0.512-0.813-0.796
			c0.313-0.287,0.59-0.712,0.955-0.813C371.817-111.569,372.185-111.16,372.832-110.747z"/>
		<path fill="#FFFFFF" d="M36.125-104.607c-0.596,0.405-0.961,0.843-1.23,0.79c-0.357-0.069-0.638-0.523-0.952-0.812
			c0.32-0.279,0.613-0.722,0.971-0.783C35.186-105.458,35.54-105.019,36.125-104.607z"/>
		<path fill="#FFFFFF" d="M289.611-33.606c-0.42-0.578-0.87-0.935-0.82-1.195c0.068-0.356,0.517-0.642,0.802-0.957
			c0.292,0.311,0.745,0.587,0.82,0.944C290.468-34.556,290.021-34.191,289.611-33.606z"/>
		<path fill="#FFFFFF" d="M318.214-345.087c-0.683,0.38-1.092,0.786-1.344,0.704c-0.345-0.111-0.571-0.592-0.849-0.914
			c0.303-0.26,0.613-0.733,0.906-0.723C317.268-346.006,317.591-345.566,318.214-345.087z"/>
		<path fill="#FFFFFF" d="M154.151-343.428c0.409,0.578,0.853,0.938,0.799,1.195c-0.075,0.355-0.521,0.634-0.81,0.945
			c-0.289-0.313-0.741-0.592-0.814-0.949C153.273-342.49,153.729-342.85,154.151-343.428z"/>
		<path fill="#FFFFFF" d="M47.958-319.599c-0.4-0.691-0.791-1.067-0.759-1.404c0.028-0.294,0.531-0.544,0.824-0.813
			c0.284,0.315,0.729,0.6,0.797,0.958C48.87-320.599,48.423-320.243,47.958-319.599z"/>
		<path fill="#FFFFFF" d="M114.643-222.146c0.434,0.603,0.856,0.938,0.868,1.286c0.009,0.265-0.505,0.547-0.787,0.821
			c-0.285-0.321-0.681-0.604-0.811-0.979C113.847-221.213,114.252-221.569,114.643-222.146z"/>
		<path fill="#FFFFFF" d="M412.847-353.043c-0.376-0.615-0.801-1.017-0.725-1.258c0.109-0.342,0.588-0.567,0.908-0.843
			c0.244,0.308,0.672,0.61,0.682,0.926C413.722-353.922,413.291-353.611,412.847-353.043z"/>
		<path fill="#FFFFFF" d="M423.049-147.77c-0.438-0.658-0.854-1.011-0.842-1.349c0.01-0.295,0.503-0.573,0.782-0.858
			c0.301,0.3,0.76,0.562,0.849,0.914C423.901-148.807,423.474-148.428,423.049-147.77z"/>
		<path fill="#FFFFFF" d="M140.004-86.165c-0.364,0.203-0.745,0.587-1.087,0.555c-0.289-0.027-0.743-0.538-0.738-0.83
			c0.004-0.287,0.481-0.78,0.771-0.796c0.343-0.018,0.707,0.38,1.063,0.597C140.009-86.481,140.007-86.323,140.004-86.165z"/>
		<path fill="#FFFFFF" d="M363.406-38.745c-0.344,0.238-0.688,0.657-1.032,0.656c-0.286,0-0.779-0.477-0.8-0.771
			c-0.021-0.286,0.411-0.819,0.697-0.858c0.34-0.047,0.735,0.318,1.107,0.505C363.388-39.057,363.397-38.9,363.406-38.745z"/>
		<path fill="#FFFFFF" d="M481.961-304.648c-0.686,0.377-1.099,0.782-1.347,0.699c-0.345-0.117-0.567-0.6-0.842-0.926
			c0.306-0.256,0.62-0.727,0.913-0.713C481.024-305.572,481.344-305.131,481.961-304.648z"/>
		<path fill="#FFFFFF" d="M484.62-208.487c-0.37-0.608-0.76-0.965-0.719-1.26c0.045-0.312,0.501-0.563,0.777-0.842
			c0.288,0.307,0.743,0.583,0.808,0.932C485.534-209.404,485.064-209.056,484.62-208.487z"/>
		<path fill="#FFFFFF" d="M284.544-183.224c-0.411-0.589-0.86-0.964-0.798-1.208c0.088-0.345,0.555-0.594,0.859-0.884
			c0.261,0.291,0.704,0.566,0.731,0.879C285.363-184.143,284.951-183.81,284.544-183.224z"/>
		<path fill="#FFFFFF" d="M246.137-432.895c0.588,0.692,1.058,1.247,1.528,1.801c-0.173,0.127-0.46,0.395-0.503,0.359
			c-0.541-0.436-1.058-0.904-1.539-1.405C245.59-432.176,245.881-432.524,246.137-432.895z"/>
		<path fill="#FFFFFF" d="M73.499-440.874c-0.313,0.138-0.67,0.438-0.931,0.371c-0.349-0.09-0.624-0.466-0.931-0.72
			c0.268-0.235,0.556-0.682,0.8-0.66c0.385,0.035,0.74,0.387,1.108,0.604C73.531-441.145,73.515-441.009,73.499-440.874z"/>
		<path fill="#FFFFFF" d="M345.292-253.451c0.366,0.642,0.755,1.018,0.697,1.305c-0.063,0.305-0.56,0.742-0.841,0.723
			c-0.278-0.019-0.712-0.522-0.729-0.833C344.403-252.549,344.84-252.867,345.292-253.451z"/>
		<path fill="#FFFFFF" d="M83.476-417.195c0.375,0.611,0.801,1.016,0.722,1.25c-0.114,0.34-0.592,0.558-0.915,0.828
			c-0.243-0.307-0.667-0.608-0.676-0.922C82.598-416.332,83.031-416.637,83.476-417.195z"/>
		<path fill="#FFFFFF" d="M476.855-279.386c-0.67,0.374-1.061,0.768-1.329,0.697c-0.303-0.079-0.642-0.562-0.68-0.899
			c-0.023-0.205,0.503-0.67,0.768-0.658C475.934-280.233,476.237-279.84,476.855-279.386z"/>
		<path fill="#FFFFFF" d="M214.052-387.592c-0.642,0.383-1.008,0.777-1.295,0.727c-0.309-0.057-0.763-0.542-0.747-0.818
			c0.016-0.284,0.502-0.729,0.815-0.757C213.115-388.467,213.445-388.036,214.052-387.592z"/>
		<path fill="#FFFFFF" d="M53.062-14.393c-0.406-0.654-0.81-1.019-0.759-1.3c0.055-0.303,0.511-0.675,0.842-0.733
			c0.199-0.035,0.689,0.468,0.695,0.735C53.847-15.369,53.476-15.041,53.062-14.393z"/>
		<path fill="#FFFFFF" d="M293.905-164.266c-0.65,0.411-1.012,0.817-1.292,0.768c-0.304-0.054-0.676-0.506-0.738-0.837
			c-0.036-0.196,0.462-0.688,0.73-0.695C292.925-165.04,293.255-164.673,293.905-164.266z"/>
		<path fill="#FFFFFF" d="M41.653-455.156c-0.128-0.375-0.409-0.782-0.342-1.119c0.063-0.322,0.486-0.789,0.758-0.794
			c0.297-0.005,0.602,0.448,0.904,0.7c-0.23,0.275-0.461,0.551-0.692,0.825C42.072-455.414,41.862-455.285,41.653-455.156z"/>
		<path fill="#FFFFFF" d="M412.003-370.411c-0.512,0.339-0.832,0.716-1.103,0.683c-0.286-0.033-0.524-0.459-0.783-0.715
			c0.284-0.269,0.537-0.687,0.863-0.754C411.201-371.244,411.525-370.799,412.003-370.411z"/>
		<path fill="#FFFFFF" d="M438.341-4.482c-0.572,0.337-0.91,0.692-1.223,0.671c-0.259-0.018-0.487-0.479-0.729-0.743
			c0.285-0.261,0.544-0.671,0.867-0.731C437.486-5.329,437.805-4.901,438.341-4.482z"/>
		<path fill="#FFFFFF" d="M365.484-261.327c-0.477,0.366-0.805,0.794-1.023,0.745c-0.319-0.072-0.56-0.488-0.834-0.759
			c0.262-0.244,0.508-0.657,0.789-0.683C364.685-262.049,364.991-261.67,365.484-261.327z"/>
		<path fill="#FFFFFF" d="M243.049-467.686c-0.235-0.488-0.483-0.854-0.427-0.909c0.475-0.466,1.003-0.878,1.532-1.282
			c0.017-0.013,0.362,0.336,0.344,0.361C244.086-468.958,243.645-468.422,243.049-467.686z"/>
		<path fill="#FFFFFF" d="M239.13-397.704c-0.5,0.329-0.857,0.729-1.07,0.663c-0.312-0.096-0.52-0.527-0.771-0.814
			c0.276-0.225,0.55-0.617,0.831-0.622C238.388-398.481,238.663-398.083,239.13-397.704z"/>
		<path fill="#FFFFFF" d="M43.038-423.131c0.32,0.549,0.68,0.891,0.631,1.157c-0.05,0.278-0.497,0.483-0.77,0.721
			c-0.235-0.275-0.644-0.544-0.654-0.827C42.236-422.352,42.642-422.637,43.038-423.131z"/>
		<path fill="#FFFFFF" d="M127.791-355.936c-0.41,0.35-0.684,0.582-0.957,0.814c-0.218-0.336-0.58-0.662-0.604-1.011
			c-0.016-0.226,0.462-0.486,0.718-0.731C127.19-356.597,127.432-356.33,127.791-355.936z"/>
		<path fill="#FFFFFF" d="M51.005-88.38c-0.335-0.52-0.705-0.84-0.667-1.1c0.041-0.274,0.47-0.491,0.73-0.732
			c0.241,0.26,0.652,0.507,0.674,0.785C51.764-89.166,51.374-88.872,51.005-88.38z"/>
		<path fill="#FFFFFF" d="M322.919-466.225c0.338,0.605,0.645,0.904,0.613,1.162c-0.04,0.326-0.357,0.617-0.555,0.924
			c-0.209-0.252-0.569-0.493-0.588-0.76C322.366-465.217,322.634-465.557,322.919-466.225z"/>
		<path fill="#FFFFFF" d="M409.947-276.387c-0.379-0.512-0.733-0.783-0.751-1.076c-0.015-0.235,0.414-0.721,0.583-0.695
			c0.307,0.049,0.736,0.357,0.796,0.628C410.63-277.279,410.27-276.936,409.947-276.387z"/>
		<path fill="#FFFFFF" d="M78.396-218.671c-0.371-0.541-0.749-0.85-0.721-1.116c0.028-0.276,0.449-0.513,0.699-0.767
			c0.231,0.231,0.638,0.455,0.648,0.695C79.033-219.558,78.718-219.244,78.396-218.671z"/>
		<path fill="#FFFFFF" d="M80.338-204.679c0.339,0.442,0.732,0.749,0.683,0.941c-0.076,0.297-0.456,0.516-0.707,0.767
			c-0.219-0.241-0.59-0.47-0.614-0.729C79.679-203.945,80.022-204.223,80.338-204.679z"/>
		<path fill="#FFFFFF" d="M238.084-442.253c0.316,0.501,0.648,0.8,0.641,1.09c-0.006,0.226-0.512,0.66-0.664,0.609
			c-0.293-0.099-0.627-0.446-0.688-0.743C237.331-441.501,237.723-441.793,238.084-442.253z"/>
		<path fill="#FFFFFF" d="M370.484-327.032c-0.465,0.362-0.761,0.756-0.965,0.713c-0.299-0.063-0.642-0.401-0.744-0.698
			c-0.05-0.147,0.392-0.654,0.617-0.658C369.685-327.682,369.984-327.349,370.484-327.032z"/>
		<path fill="#FFFFFF" d="M90.469-236.551c0.365-0.371,0.73-0.741,1.096-1.112c0.178,0.187,0.524,0.521,0.51,0.539
			c-0.341,0.387-0.722,0.74-1.095,1.099C90.809-236.2,90.639-236.376,90.469-236.551z"/>
		<path fill="#FFFFFF" d="M221.221-486.795c-0.341-0.314-0.682-0.63-1.023-0.945c0.233-0.217,0.466-0.433,0.699-0.649
			c0.291,0.371,0.582,0.741,0.873,1.112C221.586-487.116,221.404-486.955,221.221-486.795z"/>
		<path fill="#FFFFFF" d="M436.136-154.184c-0.404,0.341-0.684,0.745-0.887,0.709c-0.299-0.052-0.543-0.418-0.811-0.65
			c0.252-0.25,0.471-0.631,0.766-0.703C435.404-154.878,435.711-154.495,436.136-154.184z"/>
		<path fill="#FFFFFF" d="M235.1-215.726c-0.584,0.311-0.908,0.622-1.197,0.593c-0.227-0.022-0.582-0.478-0.566-0.72
			c0.014-0.236,0.436-0.635,0.662-0.624C234.29-216.464,234.566-216.113,235.1-215.726z"/>
		<path fill="#FFFFFF" d="M325.541-183.378c-0.61,0.241-0.938,0.493-1.211,0.443c-0.257-0.047-0.456-0.411-0.682-0.635
			c0.295-0.152,0.585-0.408,0.887-0.424C324.769-184.005,325.018-183.715,325.541-183.378z"/>
		<path fill="#FFFFFF" d="M160.244-305.761c0.315,0.459,0.659,0.739,0.636,0.983c-0.024,0.26-0.397,0.485-0.618,0.727
			c-0.25-0.253-0.629-0.474-0.703-0.77C159.511-305.015,159.904-305.318,160.244-305.761z"/>
		<path fill="#FFFFFF" d="M244.109-475.578c-0.457,0.322-0.775,0.703-0.969,0.646c-0.293-0.084-0.499-0.473-0.742-0.732
			c0.251-0.211,0.493-0.573,0.755-0.588C243.398-476.268,243.664-475.912,244.109-475.578z"/>
		<path fill="#FFFFFF" d="M61.142-19.691c0.333,0.437,0.691,0.702,0.679,0.949c-0.012,0.26-0.379,0.503-0.592,0.753
			c-0.261-0.243-0.651-0.448-0.736-0.741C60.438-18.924,60.823-19.244,61.142-19.691z"/>
		<path fill="#FFFFFF" d="M231.904-481.65c0.365,0.43,0.775,0.715,0.736,0.91c-0.059,0.299-0.43,0.537-0.668,0.801
			c-0.232-0.229-0.617-0.438-0.654-0.693C231.283-480.879,231.611-481.176,231.904-481.65z"/>
		<path fill="#FFFFFF" d="M37.885-26.853c-0.42,0.358-0.709,0.772-0.905,0.732c-0.299-0.062-0.534-0.437-0.795-0.679
			c0.231-0.233,0.441-0.623,0.699-0.657C37.129-27.487,37.423-27.149,37.885-26.853z"/>
		<path fill="#FFFFFF" d="M444.33-189.509c0.287,0.466,0.648,0.807,0.581,0.998c-0.101,0.286-0.501,0.467-0.774,0.692
			c-0.196-0.262-0.549-0.525-0.546-0.785C443.595-188.85,443.969-189.091,444.33-189.509z"/>
		<path fill="#FFFFFF" d="M256.17-283.552c-0.291-0.495-0.614-0.801-0.57-1.038c0.048-0.251,0.443-0.438,0.688-0.652
			c0.214,0.246,0.584,0.484,0.596,0.739C256.895-284.262,256.529-284.004,256.17-283.552z"/>
		<path fill="#FFFFFF" d="M219.848-75.366c-0.293-0.436-0.631-0.72-0.6-0.954c0.033-0.248,0.488-0.67,0.637-0.623
			c0.294,0.091,0.629,0.422,0.701,0.714C220.629-76.055,220.205-75.765,219.848-75.366z"/>
		<path fill="#FFFFFF" d="M474.503-55.907c-0.365,0.234-0.656,0.523-0.758,0.467c-0.306-0.167-0.537-0.47-0.798-0.72
			c0.227-0.186,0.503-0.558,0.67-0.514C473.901-56.6,474.117-56.264,474.503-55.907z"/>
		<path fill="#FFFFFF" d="M47.287-50.263c-0.365,0.678-0.521,1.146-0.83,1.466c-0.159,0.165-0.592,0.066-0.9,0.087
			c0.062-0.277,0.032-0.673,0.205-0.808C46.118-49.796,46.582-49.935,47.287-50.263z"/>
		<path fill="#FFFFFF" d="M24.705-46.036c-0.286-0.452-0.614-0.74-0.581-0.979c0.035-0.253,0.413-0.458,0.641-0.684
			c0.24,0.256,0.609,0.484,0.674,0.778C25.48-46.734,25.066-46.449,24.705-46.036z"/>
		<path fill="#FFFFFF" d="M158.174-194.658c-0.449,0.359-0.709,0.728-0.949,0.716c-0.254-0.014-0.666-0.378-0.682-0.61
			c-0.015-0.228,0.355-0.635,0.608-0.681C157.388-195.275,157.691-194.948,158.174-194.658z"/>
		<path fill="#FFFFFF" d="M398.748-1.479c-0.498,0.308-0.769,0.603-1.036,0.599c-0.207-0.003-0.604-0.425-0.568-0.579
			c0.063-0.273,0.369-0.641,0.617-0.678C397.986-2.17,398.27-1.817,398.748-1.479z"/>
		<path fill="#FFFFFF" d="M176.607-486.566c0.309,0.422,0.492,0.674,0.678,0.926c-0.268,0.18-0.527,0.479-0.806,0.498
			c-0.193,0.014-0.604-0.392-0.577-0.551C175.947-485.958,176.268-486.175,176.607-486.566z"/>
		<path fill="#FFFFFF" d="M56.085-287.559c-0.5,0.313-0.802,0.648-1.028,0.604c-0.248-0.05-0.532-0.428-0.59-0.707
			c-0.03-0.145,0.396-0.547,0.609-0.541C55.342-288.195,55.599-287.889,56.085-287.559z"/>
		<path fill="#FFFFFF" d="M25.755-336.053c-0.508,0.297-0.821,0.625-1.048,0.574c-0.245-0.056-0.518-0.447-0.566-0.729
			c-0.025-0.147,0.414-0.537,0.624-0.523C25.032-336.713,25.28-336.398,25.755-336.053z"/>
		<path fill="#FFFFFF" d="M2.454-212.764c0.355,0.47,0.674,0.712,0.696,0.979c0.018,0.211-0.364,0.658-0.51,0.635
			c-0.284-0.046-0.681-0.308-0.743-0.554C1.841-211.929,2.165-212.249,2.454-212.764z"/>
		<path fill="#FFFFFF" d="M484.653-212.861c-0.453,0.359-0.716,0.726-0.946,0.706c-0.247-0.021-0.574-0.373-0.65-0.642
			c-0.043-0.153,0.334-0.594,0.542-0.607C483.864-213.423,484.149-213.14,484.653-212.861z"/>
		<path fill="#FFFFFF" d="M394.665-452.385c-0.295-0.473-0.627-0.771-0.585-1.002c0.046-0.248,0.448-0.607,0.681-0.597
			c0.226,0.011,0.589,0.421,0.602,0.671C395.374-453.076,395.011-452.819,394.665-452.385z"/>
		<path fill="#FFFFFF" d="M294.643-75.328c-0.489,0.335-0.776,0.683-1.005,0.647c-0.249-0.04-0.549-0.407-0.616-0.684
			c-0.035-0.146,0.373-0.564,0.583-0.566C293.872-75.934,294.143-75.639,294.643-75.328z"/>
		<path fill="#FFFFFF" d="M52.005-475.432c-0.286-0.535-0.584-0.84-0.543-1.089c0.041-0.256,0.414-0.458,0.641-0.683
			c0.199,0.248,0.543,0.492,0.554,0.748C52.667-476.199,52.342-475.93,52.005-475.432z"/>
		<path fill="#FFFFFF" d="M456.295-342.1c0.356,0.404,0.723,0.646,0.696,0.829c-0.041,0.274-0.315,0.601-0.575,0.72
			c-0.122,0.057-0.612-0.304-0.63-0.503C455.763-341.317,456.038-341.608,456.295-342.1z"/>
		<path fill="#FFFFFF" d="M436.101-308.757c-0.477,0.277-0.753,0.563-1.016,0.552c-0.2-0.01-0.582-0.478-0.532-0.6
			c0.107-0.265,0.415-0.556,0.687-0.609C435.42-309.449,435.679-309.096,436.101-308.757z"/>
		<path fill="#FFFFFF" d="M214.73-397.716c-0.451,0.29-0.737,0.608-0.916,0.558c-0.262-0.077-0.446-0.418-0.664-0.646
			c0.207-0.195,0.424-0.556,0.621-0.546C214.033-398.336,214.281-398.033,214.73-397.716z"/>
		<path fill="#FFFFFF" d="M388.675-282.559c-0.32-0.477-0.66-0.762-0.627-0.992c0.035-0.242,0.402-0.538,0.673-0.602
			c0.146-0.034,0.557,0.371,0.556,0.576C389.274-283.31,388.981-283.045,388.675-282.559z"/>
		<path fill="#FFFFFF" d="M381.474-217.894c-0.286-0.492-0.613-0.809-0.556-1.022c0.063-0.24,0.463-0.497,0.742-0.53
			c0.156-0.019,0.532,0.416,0.511,0.615C382.143-218.567,381.823-218.335,381.474-217.894z"/>
	</g>
</pattern>
<g id="background">
	<rect x="-15.169" y="-12" fill="#3A419A" width="1730" height="1144"/>
	<g>
		<path opacity="0.3" fill="#F3EDD4" d="M1031.327,674.182c45.072-21.584,109.166-60.664,158.289-109.143
			c9.631-9.502-26.681-207.001-26.687-207.029c1.178,6.408-8.56,21.713-10.952,27.113c-10.497,23.688-22.696,46.638-36.536,68.542
			c-27.391,43.351-65.552,86.71-106.401,117.645c-69.83,52.882-168.159,55.729-247.342,23.191
			c-23.056-9.474-47.791-21.7-67.902-36.54c-12.858-9.488-24.986-20.281-35.952-31.912c-14.574-15.458-28.093-33.446-38.624-51.927
			c-12.124-21.277-21.372-43.683-31.74-65.794c-3.221-6.87-5.581-17.734-13.078-12.888c-7.045,4.554-9.911,31.033-12.021,38.461
			c-5.224,18.387-10.919,36.615-17.264,54.646c-8.021,22.797-18.61,45.358-22.086,69.458
			c37.034,37.829,75.072,50.236,120.134,76.446c107.486,62.521,59.132,153.334-27.411,159.845
			c-11.91,0.896,30.183,222.365,312.913,155.841c43.237-10.174,191.101-109.501,109.265-157.688
			C1006.896,774.175,986.239,695.774,1031.327,674.182z"/>
		<path opacity="0.2" fill="#FFFFFF" d="M714.72,778.897c0,0,27.925-10.677,15.193-89.11c-1.442-8.891,4.928-9.034,7.392-5.339
			c2.464,3.696,30.389,43.94,16.837,101.841C752.751,792.232,714.72,778.897,714.72,778.897z"/>
		<path opacity="0.2" fill="#FFFFFF" d="M823.646,867.717c0,0-44.352-30.389-27.104-141.264c1.135-7.304,5.749-4.516,5.749,1.644
			c0,6.16-2.454,100.065,52.974,112.517c23.801,5.347,36.548,59.957,0,57.081C818.717,894.819,823.646,867.717,823.646,867.717z"/>
		<path opacity="0.2" fill="#FFFFFF" d="M1135.94,463.572c0,0-14.679,52.448-66.42,96.896c-22.264,19.125-4.928,23.719,0,22.076
			s66.42-30.387,98.57-96.912C1174.33,472.725,1135.94,463.572,1135.94,463.572z"/>
		<path opacity="0.2" fill="#FFFFFF" d="M816.561,651.535c0,0,100.197,22.175,217.643-28.746c10.495-4.551,17.247-4.516,18.479,0
			c1.232,4.515-5.561,7.799-9.556,9.031s-78.957,38.591-228.21,24.52C809.921,655.869,813.46,650.934,816.561,651.535z"/>
		<path opacity="0.2" fill="#FFFFFF" d="M591.73,480.497c0,0,5.544,79.46,155.841,140.441c12.094,4.907,17.246,8.008,12.935,15.399
			s-6.775,3.152-19.095,0c-7.186-1.838-122.578-33.016-195.636-105.331C537.41,522.727,591.73,480.497,591.73,480.497z"/>
		<g>
			<path id="XMLID_2_" fill="#FEFAD7" d="M1167.403,630.688c144.52-121.265,193.077-301.579,108.255-403.828
				c-84.817-102.245-270.995-87.829-416.871,31.809l65.126,35.014l24.666,73.225l187.361-54.836l-86.469,176.456l108.96,26.708
				L1167.403,630.688z"/>
			<path opacity="0.4" fill="#F9EB79" d="M861.95,256.12l69.666,36.231l15.442,70.042l1.521,4.513l46.16-13.511l121.094-45.899
				l20.107,4.574l-80.658,172.793l-4.305,4.031l28.588,7.008l81.439,12.572l15.669,114.212c7.449-6.569,14.629-13.293,21.526-20.156
				l26.101-112.163l-103.218-29.266l21.619-125.186l10.555-62.809l-171.384,48.694l2.787-82.578l-100.389-0.09
				C876.744,244.53,869.3,250.192,861.95,256.12z"/>
			<path opacity="0.4" fill="#F9EB79" d="M1079.565,495.902l78.866,19.332l8.972,115.453c3.141-2.638,6.221-5.311,9.271-8.001
				l-15.669-114.212L1079.565,495.902z"/>
			<path opacity="0.2" fill="#231F20" d="M1079.565,495.902l78.866,19.332l8.972,115.453c3.141-2.638,6.221-5.311,9.271-8.001
				l-15.669-114.212L1079.565,495.902z"/>
			<polygon opacity="0.4" fill="#F9EB79" points="1135.94,312.07 1049.472,488.526 1050.978,488.895 1055.282,484.863 			"/>
			<polygon opacity="0.2" fill="#231F20" points="1135.94,312.07 1049.472,488.526 1050.978,488.895 1055.282,484.863 			"/>
			<path opacity="0.4" fill="#F9EB79" d="M861.95,256.12c-1.055,0.851-2.113,1.687-3.163,2.548l65.126,35.014l23.146,68.712
				l-15.442-70.042L861.95,256.12z"/>
			<path opacity="0.2" fill="#231F20" d="M861.95,256.12c-1.055,0.851-2.113,1.687-3.163,2.548l65.126,35.014l23.146,68.712
				l-15.442-70.042L861.95,256.12z"/>
			<polygon opacity="0.4" fill="#F9EB79" points="994.739,353.396 1135.94,312.07 1115.833,307.496 			"/>
			<polygon opacity="0.2" fill="#231F20" points="994.739,353.396 1135.94,312.07 1115.833,307.496 			"/>
			<path opacity="0.05" fill="#231F20" d="M1018.79,172.764c95.957-1.078,283.929,26.498,285.881,258.824
				c23.197-76.517,15.322-151.287-29.013-204.729C1220.184,159.986,1121.349,143.028,1018.79,172.764z"/>
			
				<ellipse transform="matrix(0.8911 -0.4539 0.4539 0.8911 1.4751 500.3928)" opacity="0.5" fill="#FFFFFF" cx="1043.126" cy="247.124" rx="89.513" ry="57.211"/>
		</g>
		<g>
			<g>
				<defs>
					<path id="XMLID_1_" d="M843.926,235.287c-142.131-124.065-327.782-144.196-415.703-44.6
						c-87.921,99.593-44.927,281.312,95.804,406.963l67.569-31.764l25.51-73.672l183.806,58.995l-79.227-177.454l111.126-22.118
						L843.926,235.287z"/>
				</defs>
				<use xlink:href="#XMLID_1_"  overflow="visible" fill="#FEFAD7"/>
				<clipPath id="XMLID_7_">
					<use xlink:href="#XMLID_1_"  overflow="visible"/>
				</clipPath>
				<path opacity="0.3" clip-path="url(#XMLID_7_)" fill="#FFFFFF" d="M402.776,198.652c0,0-58.666,259.328,196.346,385.257
					c13.461,6.648-89.316,46.779-89.316,46.779s-144.137-79.085-147.217-98.181c-3.08-19.095-7.392-264.251-7.392-264.251
					L402.776,198.652z"/>
			</g>
			<path opacity="0.4" fill="#F9EB79" d="M589.185,563.269l20.271-82.911l183.275,63.104l-70.413-168.287l-0.633-1.418
				l105.093-20.917l7.668-125.597c-0.896-0.744-1.788-1.487-2.687-2.221L818.08,326.788l-147.553,15.161l31.961,145.824
				l-147.402-91.149l10.831,141.354l-72.334,4.461c15.115,17.438,28.664,31.651,38.402,41.471L589.185,563.269z"/>
			<path opacity="0.4" fill="#F9EB79" d="M832.811,351.638l11.115-116.351c-3.138-2.738-6.302-5.408-9.48-8.045l-7.668,125.597
				L832.811,351.638z"/>
			<path opacity="0.2" fill="#231F20" d="M832.811,351.638l11.115-116.351c-3.138-2.738-6.302-5.408-9.48-8.045l-7.668,125.597
				L832.811,351.638z"/>
			<path opacity="0.4" fill="#F9EB79" d="M609.455,480.357l-20.271,82.911l-57.199,20.641c2.556,2.576,4.837,4.84,6.826,6.79
				l52.784-24.813l25.51-73.672l183.806,58.995l-78.594-176.036l70.413,168.287L609.455,480.357z"/>
			<path opacity="0.2" fill="#231F20" d="M609.455,480.357l-20.271,82.911l-57.199,20.641c2.556,2.576,4.837,4.84,6.826,6.79
				l52.784-24.813l25.51-73.672l183.806,58.995l-78.594-176.036l70.413,168.287L609.455,480.357z"/>
			<path opacity="0.05" fill="#231F20" d="M388.646,376.552c6.515,17.826,14.803,35.452,24.175,52.521
				c-13.021-115.935,6.277-311.695,296.127-276.609c-109.16-42.598-219.017-31.682-280.726,38.224
				C385.827,238.711,373.882,305.831,388.646,376.552z"/>
			<path opacity="0.4" fill="#F9EB79" d="M515.517,589.853l16.469-5.943c-9.738-9.819-23.287-24.033-38.402-41.471l-21.338,1.316
				C485.331,559.687,499.771,575.121,515.517,589.853z"/>
			<path opacity="0.4" fill="#F9EB79" d="M515.517,589.853c2.801,2.619,5.626,5.224,8.51,7.798l14.785-6.951
				c-1.989-1.95-4.271-4.214-6.826-6.79L515.517,589.853z"/>
			<path opacity="0.2" fill="#231F20" d="M515.517,589.853c2.801,2.619,5.626,5.224,8.51,7.798l14.785-6.951
				c-1.989-1.95-4.271-4.214-6.826-6.79L515.517,589.853z"/>
			<path opacity="0.05" fill="#231F20" d="M416.906,457.98c-1.506-8.852-2.925-18.563-4.085-28.907
				c-9.372-17.069-17.66-34.695-24.175-52.521C394.265,403.46,403.758,430.885,416.906,457.98z"/>
			
				<ellipse transform="matrix(0.9525 0.3045 -0.3045 0.9525 121.8544 -201.1646)" opacity="0.5" fill="#FFFFFF" cx="705.789" cy="290.039" rx="94.892" ry="64.751"/>
		</g>
		<g>
			<defs>
				<path id="XMLID_3_" d="M476.753,863.182c-0.145-3.158,0.071-6.402,0.69-9.736c5.705-30.688,44.987-61.384,70.569-75.725
					c46.813-26.242,105.069-32.171,156.546-17.6c23.415,6.629,46.452,15.771,67.471,28.107
					c22.16,13.007,42.717,30.379,59.014,50.309c8.235,10.071,48.088,64.465-53.726,104.906
					c-7.377,2.931-120.176,34.018-217.764-5.531C530.687,926.216,478.454,900.675,476.753,863.182z"/>
			</defs>
			<use xlink:href="#XMLID_3_"  overflow="visible" fill="#FFC60B"/>
			<clipPath id="XMLID_8_">
				<use xlink:href="#XMLID_3_"  overflow="visible"/>
			</clipPath>
			<path clip-path="url(#XMLID_8_)" fill="#FCAF17" d="M476.71,887.924c0,0,203.72,123.81,348.473-10.472
				c12.78-11.856,20.436-40.038-7.391-63.445c-7.731-6.504,35.109,22.791,35.109,22.791l0.616,62.829l-88.7,89.315L550.46,951.984
				L476.71,887.924z"/>
			<path opacity="0.2" clip-path="url(#XMLID_8_)" fill="#EF4624" d="M805.967,799.841c0,0,55.983,163.017-131.491,163.017
				c-33.695,0,120.73,6.991,120.73,6.991l100.199-102.663L805.967,799.841z"/>
			<path opacity="0.3" clip-path="url(#XMLID_8_)" fill="#FFF46B" d="M472.245,893.467c0,0,50.785-170.829,299.143-117.444
				c15.446,3.32-117.933-48.457-117.933-48.457s-126.646-13.142-130.425-7.392c-3.779,5.749-46.32,78.023-46.32,78.023
				L472.245,893.467z"/>
			<path opacity="0.3" clip-path="url(#XMLID_8_)" fill="#FFF46B" d="M557.853,870.061c0,0,19.711,24.229,94.038,27.513
				c7.892,0.349,38.601,0.821,71.042-15.604c8.521-4.313,10.267,6.16,5.339,7.393c-4.929,1.231-28.335,26.691-100.609,19.711
				c-8.991-0.869-53.794-6.981-71.452-30.389C553.877,875.591,553.505,866.143,557.853,870.061z"/>
			
				<ellipse transform="matrix(0.9688 -0.2478 0.2478 0.9688 -175.3893 176.4237)" opacity="0.2" clip-path="url(#XMLID_8_)" fill="#FFFFFF" cx="613.259" cy="785.056" rx="102.251" ry="35.726"/>
			
				<ellipse transform="matrix(0.8708 0.4916 -0.4916 0.8708 509.7733 -152.8875)" opacity="0.2" clip-path="url(#XMLID_8_)" fill="#FFFFFF" cx="545.775" cy="893.467" rx="102.251" ry="35.725"/>
			<ellipse opacity="0.3" clip-path="url(#XMLID_8_)" fill="#FFF46B" cx="694.598" cy="766.168" rx="74.327" ry="26.281"/>
		</g>
		<g>
			<defs>
				<path id="XMLID_5_" d="M971.82,895.025c0,0-106.727,29.618-146.634-104.51c-3.539-11.896-18.212-127.172,49.571-155.27
					c8.22-3.406,65.248-16.908,95.633,28.032c10.028,14.831,16.125,31.346,28.264,44.956c17.491,19.611,46.245,27.699,61.755,49.78
					c11.172,15.907,14.344,41.734,11.221,60.47c-2.937,17.613-12.751,34.954-23.029,49.321
					C1038.526,881.888,971.82,895.025,971.82,895.025z"/>
			</defs>
			<use xlink:href="#XMLID_5_"  overflow="visible" fill="#FFC60B"/>
			<clipPath id="XMLID_9_">
				<use xlink:href="#XMLID_5_"  overflow="visible"/>
			</clipPath>
			<path opacity="0.7" clip-path="url(#XMLID_9_)" fill="#FCAF17" d="M821.391,796.144c0,0,76.093,62.187,161.215,58.938
				c82.319-3.142,75.831-39.844,96.96-70.642c10.584-15.426,0,52.101,0,52.101l-6.799,32.903l-57.864,43.733
				c0,0-90.548,10.472-91.164,8.624s-56.669-40.038-56.669-40.038l-40.654-68.988L821.391,796.144z"/>
			<path opacity="0.2" clip-path="url(#XMLID_9_)" fill="#EF4624" d="M851.347,855.082c0,0,169.715,39.001,201.482,12.514
				c19.329-16.115-59.486,64.062-59.486,64.062s-88.699-9.855-96.091-17.863S851.347,855.082,851.347,855.082z"/>
			<path opacity="0.3" clip-path="url(#XMLID_9_)" fill="#FFF46B" d="M868.035,689.719c0,0-19.527,28.965,1.104,109.582
				c2.189,8.56,11.659,41.581,39.778,70.968c7.387,7.718-3.258,12.987-6.177,8.113c-2.919-4.872-37.771-21.655-53.78-101.276
				c-1.992-9.905-10.002-59.842,9.313-86.345C860.825,687.259,870.815,683.791,868.035,689.719z"/>
			<path opacity="0.3" clip-path="url(#XMLID_9_)" fill="#FFF46B" d="M980.407,663.71c0,0-121.62-59.749-167.986,76.996
				c-3.9,11.504,16.458-97.323,16.458-97.323l48.661-23.994c0,0,48.188-9.93,50.51-10.498
				C930.372,608.323,980.407,663.71,980.407,663.71z"/>
			
				<ellipse transform="matrix(0.9405 -0.3398 0.3398 0.9405 -177.8989 353.0538)" opacity="0.1" clip-path="url(#XMLID_9_)" fill="#FFFFFF" cx="919.119" cy="684.479" rx="32.955" ry="45.274"/>
			
				<ellipse transform="matrix(0.9405 -0.3398 0.3398 0.9405 -225.0449 331.6683)" opacity="0.2" clip-path="url(#XMLID_9_)" fill="#FFFFFF" cx="834.446" cy="808.375" rx="27.91" ry="73.889"/>
			
				<ellipse transform="matrix(0.9853 0.1706 -0.1706 0.9853 154.8525 -162.8301)" opacity="0.2" clip-path="url(#XMLID_9_)" fill="#FFFFFF" cx="1025.051" cy="819.782" rx="32.955" ry="45.274"/>
			
				<ellipse transform="matrix(0.9405 -0.3398 0.3398 0.9405 -168.7196 372.8242)" opacity="0.1" clip-path="url(#XMLID_9_)" fill="#FFFFFF" cx="980.162" cy="668.156" rx="46.734" ry="53.199"/>
		</g>
		<g>
			<defs>
				<path id="XMLID_4_" d="M831.958,981.822c-0.477-3.506-0.563-7.14-0.206-10.916c3.283-34.758,43.972-72.885,71.035-91.421
					c49.521-33.92,113.825-46.356,172.628-35.276c26.748,5.039,53.326,12.917,77.977,24.556
					c25.989,12.271,50.628,29.565,70.779,50.137c10.182,10.395,60.021,66.999-49.35,122.243
					c-7.924,4.003-130.471,49.925-243.143,15.638C898.351,1046.643,837.606,1023.419,831.958,981.822z"/>
			</defs>
			<use xlink:href="#XMLID_4_"  overflow="visible" fill="#FFC60B"/>
			<clipPath id="XMLID_10_">
				<use xlink:href="#XMLID_4_"  overflow="visible"/>
			</clipPath>
			<path clip-path="url(#XMLID_10_)" fill="#FCAF17" d="M834.387,1009.389c0,0,239.338,117.53,387.149-46.551
				c13.051-14.486,18.758-46.647-14.585-69.938c-9.264-6.471,41.394,21.875,41.394,21.875l6.977,69.93l-89.87,108.377
				l-242.495-19.713L834.387,1009.389z"/>
			<path opacity="0.2" clip-path="url(#XMLID_10_)" fill="#EF4624" d="M1192.36,878.304c0,0,78.686,175.995-130.161,194.763
				c-37.537,3.374,135.193-4.298,135.193-4.298l101.343-124.396L1192.36,878.304z"/>
			<path opacity="0.3" clip-path="url(#XMLID_10_)" fill="#FFF46B" d="M829.968,1016.012c0,0,39.474-195.389,321.487-160.78
				c17.539,2.153-136.229-42.177-136.229-42.177s-142.398-1.959-146.033,4.824c-3.633,6.782-43.789,91.555-43.789,91.555
				L829.968,1016.012z"/>
			<path opacity="0.3" clip-path="url(#XMLID_10_)" fill="#FFF46B" d="M922.992,981.367c0,0,24.383,25.016,107.511,21.233
				c8.826-0.4,43.085-2.948,77.58-24.493c9.061-5.66,12.053,5.834,6.687,7.699c-5.365,1.865-28.893,32.57-110.105,32.03
				c-10.104-0.067-60.625-2.394-82.639-26.7C919.116,987.925,917.755,977.438,922.992,981.367z"/>
			<path opacity="0.2" clip-path="url(#XMLID_10_)" fill="#FFFFFF" d="M1084.024,842.986c7.359,20.806-34.948,54.747-94.494,75.812
				c-59.548,21.063-113.785,21.273-121.145,0.467c-7.362-20.808,34.945-54.748,94.492-75.812
				C1022.426,822.39,1076.665,822.18,1084.024,842.986z"/>
			
				<ellipse transform="matrix(0.9113 0.4117 -0.4117 0.9113 496.1687 -285.9868)" opacity="0.2" clip-path="url(#XMLID_10_)" fill="#FFFFFF" cx="911.881" cy="1008.65" rx="114.366" ry="39.959"/>
			
				<ellipse transform="matrix(0.996 -0.0895 0.0895 0.996 -71.9785 98.735)" opacity="0.3" clip-path="url(#XMLID_10_)" fill="#FFF46B" cx="1064.925" cy="851.941" rx="83.134" ry="29.396"/>
		</g>
	</g>
	<g opacity="0.6">
		<g>
			<pattern  id="SVGID_1_" xlink:href="#Unnamed_Pattern_8" patternTransform="matrix(1.1007 0 0 1.1893 3106.9941 -729.7266)">
			</pattern>
			<rect x="-16.597" y="-13.776" fill="url(#SVGID_1_)" width="1733.193" height="1145.776"/>
			<pattern  id="SVGID_2_" xlink:href="#Unnamed_Pattern_2" patternTransform="matrix(0 -1.1771 1.1121 0 2875.2236 -12650.666)">
			</pattern>
			<rect x="-16.597" y="-13.776" fill="url(#SVGID_2_)" width="1733.193" height="1145.776"/>
		</g>
	</g>
</g>
<g id="Vexels">
	<g>
		<g>
			<path fill="#FFFFFF" d="M319.974,1025.319l-1.14-2.462c-0.559-1.182-2.048-1.734-3.297-1.225
				c-1.354,0.463-1.956,1.859-1.398,3.003l1.279,2.773l10.111,21.939c0.093,0.086,0.188,0.251,0.231,0.335
				c0,0.047,0.052,0.047,0.052,0.047c0.045,0.082,0.137,0.167,0.23,0.253c0,0.085,0.043,0.085,0.043,0.125
				c0.144,0.088,0.234,0.126,0.324,0.214c0.049,0,0.049,0,0.049,0c0.142,0.085,0.325,0.209,0.421,0.252c0.046,0,0.046,0,0.046,0
				s0.046,0,0.046,0.044c0.094,0,0.278,0.042,0.37,0.081c0.042,0,0.095,0,0.095,0c0.137,0.045,0.325,0.045,0.469,0.045
				c0.135,0,0.275,0,0.463-0.045c0.044,0,0.089,0,0.089,0c0.144-0.039,0.233-0.081,0.377-0.081c0.048-0.044,0.048-0.044,0.089-0.044
				c0.144-0.043,0.279-0.167,0.374-0.211c0.094-0.041,0.094-0.041,0.094-0.041c0.091-0.088,0.185-0.126,0.278-0.214
				c0.048-0.04,0.048-0.04,0.093-0.125c0.047-0.086,0.187-0.171,0.229-0.253c0.046,0,0.046,0,0.046-0.047
				c0.096-0.084,0.146-0.249,0.195-0.335l0.428-0.933l-2.754-5.969L319.974,1025.319z M418.599,1025.144
				c0.788-1.058,0.604-2.495-0.552-3.216c-1.164-0.805-2.701-0.59-3.583,0.508l-5.299,6.61l3.156,3.859L418.599,1025.144z
				 M340.314,1021.633c-1.254-0.51-2.788,0.043-3.349,1.225l-6.731,14.555l2.762,5.974l8.714-18.75
				C342.22,1023.492,341.618,1022.096,340.314,1021.633z M280.302,1012.689c-1.096-1.096-2.549-1.696-4.095-1.696
				s-2.998,0.601-4.09,1.696l-18.73,18.733c-2.256,2.262-2.256,5.923,0,8.178l18.73,18.734c1.092,1.092,2.544,1.692,4.09,1.692
				s2.999-0.601,4.095-1.689l18.729-18.737c1.097-1.098,1.697-2.541,1.697-4.092c0-1.54-0.601-2.995-1.697-4.086L280.302,1012.689z
				 M296.125,1037.19l-18.233,18.235c-0.903,0.899-2.465,0.899-3.358,0l-18.237-18.235c-0.924-0.927-0.924-2.433-0.003-3.359
				l18.24-18.235c0.014-0.019,0.032-0.031,0.047-0.04v15.108c-0.742,0.252-1.427,0.649-1.998,1.223
				c-0.965,0.965-1.5,2.253-1.5,3.622c0,1.37,0.535,2.662,1.5,3.623c0.967,0.972,2.258,1.507,3.623,1.507
				c1.371,0,2.662-0.533,3.63-1.507c1.997-1.995,1.997-5.248,0-7.253c-0.569-0.569-1.255-0.963-2-1.215v-15.108
				c0.018,0.009,0.037,0.021,0.057,0.04l18.233,18.235c0.449,0.445,0.69,1.048,0.69,1.678
				C296.815,1036.142,296.574,1036.735,296.125,1037.19z M409.768,1036.061l-3.115-3.896l-7.851-9.729
				c-0.801-1.098-2.425-1.313-3.545-0.508c-1.16,0.721-1.389,2.158-0.6,3.216l8.832,10.917l-8.832,11.001
				c-0.789,1.016-0.561,2.498,0.6,3.217c0.42,0.296,0.936,0.466,1.488,0.466c0.793,0,1.536-0.381,2.057-0.977l7.851-9.771
				l8.387,10.496c0.485,0.6,1.25,0.914,1.964,0.914c0.531,0,1.149-0.243,1.596-0.599c1.055-0.839,1.136-2.36,0.294-3.408
				L409.768,1036.061z M368.653,1021.174c-7.516,0-13.638,6.647-13.638,14.817c0,8.107,6.122,14.705,13.638,14.705
				c4.62,0,8.875-2.521,11.384-6.745c0.604-1.09,0.297-2.446-0.765-3.257c-0.345-0.224-0.752-0.339-1.164-0.339
				c-0.803,0-1.519,0.431-1.906,1.136c-1.575,2.775-4.468,4.496-7.549,4.496c-4.562,0-8.342-3.629-9.017-8.542h20.288
				c1.269,0,2.258-0.985,2.258-2.242l-0.002-0.302C381.604,1027.081,375.789,1021.174,368.653,1021.174z M359.966,1032.794
				c1.23-4.163,4.644-6.912,8.688-6.912c3.964,0,7.395,2.813,8.547,6.912H359.966z M484.894,1045.912c-0.05,0-3.495,0-3.546,0
				c-1.313,0-2.842-0.754-2.842-2.878v-23.566c0-1.386-1.135-2.511-2.521-2.511c-1.342,0-2.513,1.176-2.513,2.511v23.566
				c0,4.658,3.092,7.665,7.876,7.665c0.064,0,3.519,0,3.578-0.003c1.24-0.089,2.219-1.129,2.219-2.392
				C487.145,1047.035,486.146,1045.987,484.894,1045.912z M523.366,1038.136c-1.067-1.571-2.743-2.668-4.649-3.514
				c-1.859-0.803-4.045-1.354-6.413-1.772h-0.098c-2.506-0.427-4.601-1.106-5.809-1.87c-0.604-0.373-1.024-0.759-1.26-1.099
				c-0.229-0.334-0.323-0.677-0.323-1.179c0-0.891,0.508-1.824,1.771-2.67c1.255-0.844,3.115-1.438,5.206-1.438
				c2.834,0,5.112,1.268,7.484,2.706c1.117,0.676,2.603,0.378,3.3-0.634c0.741-0.972,0.421-2.327-0.649-3.004
				c-2.371-1.393-5.676-3.385-10.135-3.385c-3.024,0-5.856,0.805-8.045,2.24c-2.139,1.446-3.721,3.64-3.721,6.185
				c0,1.265,0.374,2.452,1.072,3.463c1.019,1.484,2.555,2.542,4.316,3.303c1.768,0.76,3.821,1.272,6,1.65h0.1
				c2.74,0.467,5.016,1.187,6.369,1.987c0.693,0.425,1.113,0.849,1.393,1.271s0.417,0.801,0.417,1.352
				c0,1.061-0.602,2.118-2.003,3.048c-1.392,0.932-3.481,1.569-5.807,1.569c-3.303,0.041-6.837-1.738-8.88-3.261
				c-1.026-0.765-2.56-0.638-3.397,0.294c-0.791,0.933-0.647,2.329,0.373,3.087c2.654,1.911,6.879,4.194,11.904,4.233
				c3.303,0,6.321-0.887,8.604-2.411c2.322-1.523,3.995-3.847,3.995-6.56C524.481,1040.418,524.064,1039.151,523.366,1038.136z
				 M446.294,1021.174c-7.521,0-13.638,6.647-13.638,14.817c0,8.107,6.116,14.705,13.638,14.705c4.624,0,8.869-2.521,11.382-6.745
				c0.604-1.09,0.302-2.446-0.762-3.257c-0.346-0.224-0.75-0.339-1.164-0.339c-0.805,0-1.519,0.431-1.907,1.136
				c-1.575,2.775-4.467,4.496-7.549,4.496c-4.56,0-8.344-3.629-9.022-8.542h20.293c1.268,0,2.261-0.985,2.261-2.242l-0.003-0.302
				C459.248,1027.081,453.434,1021.174,446.294,1021.174z M437.604,1032.794c1.233-4.163,4.646-6.912,8.69-6.912
				c3.974,0,7.396,2.813,8.546,6.912H437.604z"/>
		</g>
		<g>
			<path fill="#FFFFFF" d="M114.108,1037.477c0,0.877,0.008,1.678,0.027,2.391c0.018,0.717,0.092,1.421,0.23,2.108h-1.396
				l-0.513-1.839h-0.107c-0.344,0.604-0.843,1.108-1.5,1.504c-0.654,0.396-1.422,0.595-2.3,0.595c-1.729,0-3.007-0.546-3.84-1.628
				c-0.837-1.09-1.258-2.787-1.258-5.098c0-2.207,0.523-3.881,1.566-5.028c1.04-1.144,2.48-1.722,4.307-1.722
				c0.635,0,1.142,0.037,1.513,0.104c0.371,0.069,0.771,0.182,1.201,0.34v-5.384h2.069V1037.477z M108.887,1040.423
				c0.877,0,1.579-0.228,2.095-0.685c0.514-0.457,0.869-1.15,1.058-2.081v-6.413c-0.312-0.241-0.663-0.412-1.058-0.515
				c-0.4-0.106-0.926-0.157-1.578-0.157c-1.191,0-2.122,0.392-2.796,1.175c-0.668,0.786-1.004,2.04-1.004,3.763
				c0,0.707,0.054,1.359,0.166,1.967c0.11,0.604,0.297,1.119,0.554,1.551c0.262,0.434,0.6,0.774,1.022,1.023
				C107.768,1040.3,108.284,1040.423,108.887,1040.423z"/>
			<path fill="#FFFFFF" d="M127.53,1040.89c-0.52,0.415-1.167,0.741-1.95,0.982c-0.791,0.243-1.619,0.363-2.498,0.363
				c-0.984,0-1.837-0.161-2.561-0.48c-0.723-0.316-1.319-0.774-1.784-1.368c-0.468-0.597-0.811-1.308-1.036-2.136
				c-0.221-0.826-0.335-1.758-0.335-2.792c0-2.208,0.49-3.889,1.474-5.042c0.982-1.156,2.39-1.733,4.213-1.733
				c0.591,0,1.175,0.066,1.76,0.194c0.588,0.128,1.114,0.376,1.578,0.736c0.467,0.365,0.844,0.877,1.14,1.54
				c0.293,0.665,0.438,1.535,0.438,2.624c0,0.568-0.053,1.196-0.155,1.89h-8.301c0,0.759,0.077,1.43,0.231,2.016
				c0.158,0.59,0.398,1.082,0.727,1.486c0.327,0.406,0.754,0.716,1.277,0.931c0.525,0.216,1.17,0.322,1.93,0.322
				c0.584,0,1.169-0.103,1.757-0.308c0.586-0.209,1.024-0.45,1.319-0.726L127.53,1040.89z M123.082,1030.493
				c-1.019,0-1.832,0.268-2.446,0.805c-0.61,0.533-0.979,1.447-1.098,2.741h6.415c0-1.312-0.252-2.23-0.75-2.756
				C124.699,1030.758,123.996,1030.493,123.082,1030.493z"/>
			<path fill="#FFFFFF" d="M136.918,1038.41c0-0.522-0.158-0.926-0.468-1.218c-0.313-0.293-0.694-0.542-1.149-0.736
				c-0.459-0.198-0.96-0.387-1.501-0.571c-0.541-0.181-1.042-0.414-1.497-0.695c-0.462-0.288-0.841-0.65-1.153-1.1
				c-0.312-0.45-0.467-1.054-0.467-1.812c0-1.24,0.354-2.147,1.061-2.726c0.708-0.578,1.691-0.869,2.95-0.869
				c0.932,0,1.709,0.083,2.339,0.247c0.63,0.163,1.177,0.357,1.639,0.584l-0.487,1.703c-0.396-0.188-0.878-0.357-1.438-0.505
				c-0.559-0.146-1.158-0.22-1.795-0.22c-0.758,0-1.315,0.13-1.668,0.388c-0.355,0.26-0.53,0.71-0.53,1.348
				c0,0.446,0.156,0.795,0.467,1.047c0.309,0.246,0.692,0.473,1.15,0.673c0.457,0.194,0.958,0.391,1.5,0.58
				c0.545,0.189,1.042,0.438,1.501,0.751c0.454,0.311,0.839,0.701,1.15,1.177c0.307,0.474,0.464,1.097,0.464,1.876
				c0,0.55-0.09,1.068-0.274,1.551c-0.178,0.481-0.457,0.896-0.836,1.238c-0.38,0.347-0.854,0.619-1.412,0.816
				c-0.561,0.197-1.218,0.298-1.978,0.298c-0.983,0-1.819-0.097-2.507-0.286c-0.689-0.188-1.271-0.413-1.731-0.672l0.618-1.76
				c0.396,0.228,0.914,0.435,1.552,0.619c0.639,0.192,1.285,0.286,1.938,0.286c0.742,0,1.357-0.146,1.837-0.44
				C136.673,1039.69,136.918,1039.166,136.918,1038.41z"/>
			<path fill="#FFFFFF" d="M142.113,1025.064c0-0.397,0.131-0.736,0.402-1.021c0.265-0.287,0.605-0.427,1.021-0.427
				c0.41,0,0.766,0.14,1.059,0.427c0.288,0.285,0.436,0.624,0.436,1.021c0,0.396-0.147,0.725-0.436,0.984
				c-0.293,0.257-0.648,0.386-1.059,0.386c-0.416,0-0.757-0.129-1.021-0.386C142.244,1025.789,142.113,1025.461,142.113,1025.064z
				 M142.551,1028.993h2.069v12.928h-2.069V1028.993z"/>
			<path fill="#FFFFFF" d="M158.945,1042.519c0,1.674-0.441,2.904-1.33,3.698c-0.89,0.791-2.205,1.19-3.944,1.19
				c-1.035,0-1.863-0.067-2.496-0.198c-0.629-0.127-1.168-0.297-1.615-0.503l0.541-1.757c0.398,0.153,0.836,0.302,1.322,0.44
				c0.481,0.137,1.11,0.206,1.886,0.206c0.727,0,1.315-0.065,1.771-0.193c0.457-0.129,0.822-0.345,1.099-0.646
				c0.274-0.303,0.466-0.688,0.568-1.163c0.102-0.477,0.157-1.04,0.157-1.695v-1.239H156.8c-0.347,0.499-0.786,0.883-1.323,1.148
				c-0.532,0.268-1.228,0.403-2.087,0.403c-1.745,0-3.023-0.544-3.843-1.631c-0.818-1.086-1.229-2.774-1.229-5.069
				c0-2.207,0.526-3.881,1.576-5.028c1.053-1.144,2.604-1.722,4.654-1.722c0.984,0,1.826,0.08,2.521,0.233
				c0.697,0.157,1.325,0.337,1.875,0.544V1042.519z M153.748,1040.398c0.879,0,1.568-0.219,2.067-0.66
				c0.5-0.439,0.854-1.125,1.063-2.055v-6.626c-0.691-0.32-1.569-0.485-2.634-0.485c-1.177,0-2.1,0.395-2.771,1.188
				c-0.674,0.792-1.01,2.036-1.01,3.722c0,0.726,0.06,1.387,0.185,1.994c0.115,0.604,0.307,1.119,0.569,1.551
				c0.256,0.434,0.59,0.769,1.004,1.008C152.636,1040.276,153.145,1040.398,153.748,1040.398z"/>
			<path fill="#FFFFFF" d="M171.229,1041.921v-7.367c0-1.348-0.195-2.358-0.58-3.035c-0.391-0.683-1.102-1.025-2.136-1.025
				c-0.915,0-1.67,0.248-2.264,0.739c-0.595,0.489-1.013,1.104-1.254,1.848v8.841h-2.067v-12.928h1.446l0.39,1.579h0.104
				c0.414-0.554,0.971-1.006,1.667-1.36c0.699-0.35,1.529-0.528,2.497-0.528c0.705,0,1.324,0.083,1.859,0.247
				c0.535,0.163,0.979,0.451,1.334,0.866c0.353,0.413,0.618,0.971,0.804,1.666c0.179,0.701,0.268,1.583,0.268,2.653v7.805H171.229z"
				/>
			<path fill="#FFFFFF" d="M186.513,1040.89c-0.521,0.415-1.169,0.741-1.955,0.982c-0.785,0.243-1.613,0.363-2.493,0.363
				c-0.983,0-1.837-0.161-2.561-0.48c-0.727-0.316-1.317-0.774-1.786-1.368c-0.461-0.597-0.812-1.308-1.032-2.136
				c-0.224-0.826-0.336-1.758-0.336-2.792c0-2.208,0.489-3.889,1.475-5.042c0.979-1.156,2.385-1.733,4.211-1.733
				c0.586,0,1.174,0.066,1.761,0.194c0.588,0.128,1.111,0.376,1.579,0.736c0.464,0.365,0.843,0.877,1.138,1.54
				c0.292,0.665,0.439,1.535,0.439,2.624c0,0.568-0.054,1.196-0.158,1.89h-8.3c0,0.759,0.077,1.43,0.232,2.016
				c0.155,0.59,0.395,1.082,0.725,1.486c0.328,0.406,0.754,0.716,1.28,0.931c0.526,0.216,1.168,0.322,1.929,0.322
				c0.584,0,1.171-0.103,1.756-0.308c0.586-0.209,1.028-0.45,1.32-0.726L186.513,1040.89z M182.064,1030.493
				c-1.018,0-1.834,0.268-2.444,0.805c-0.612,0.533-0.979,1.447-1.097,2.741h6.409c0-1.312-0.247-2.23-0.75-2.756
				C183.684,1030.758,182.975,1030.493,182.064,1030.493z"/>
			<path fill="#FFFFFF" d="M200.134,1037.477c0,0.877,0.013,1.678,0.031,2.391c0.017,0.717,0.093,1.421,0.23,2.108H199l-0.518-1.839
				h-0.104c-0.346,0.604-0.843,1.108-1.499,1.504c-0.653,0.396-1.425,0.595-2.302,0.595c-1.723,0-3.001-0.546-3.841-1.628
				c-0.836-1.09-1.253-2.787-1.253-5.098c0-2.207,0.521-3.881,1.565-5.028c1.043-1.144,2.478-1.722,4.303-1.722
				c0.638,0,1.145,0.037,1.513,0.104c0.373,0.069,0.771,0.182,1.205,0.34v-5.384h2.063V1037.477z M194.917,1040.423
				c0.878,0,1.574-0.228,2.092-0.685c0.519-0.457,0.871-1.15,1.062-2.081v-6.413c-0.311-0.241-0.664-0.412-1.062-0.515
				c-0.396-0.106-0.922-0.157-1.578-0.157c-1.188,0-2.119,0.392-2.788,1.175c-0.673,0.786-1.012,2.04-1.012,3.763
				c0,0.707,0.057,1.359,0.168,1.967c0.111,0.604,0.297,1.119,0.557,1.551c0.256,0.434,0.6,0.774,1.021,1.023
				C193.798,1040.3,194.312,1040.423,194.917,1040.423z"/>
			<path fill="#FFFFFF" d="M211.027,1023.82h2.067v6.44h0.101c0.398-0.498,0.9-0.887,1.515-1.163
				c0.61-0.273,1.277-0.414,2.002-0.414c1.672,0,2.93,0.535,3.764,1.604c0.836,1.068,1.255,2.725,1.255,4.965
				c0,2.259-0.554,3.976-1.656,5.146s-2.652,1.76-4.653,1.76c-0.964,0-1.839-0.105-2.622-0.312
				c-0.787-0.206-1.375-0.431-1.771-0.673V1023.82z M216.353,1030.493c-0.862,0-1.561,0.244-2.094,0.725
				c-0.537,0.481-0.925,1.163-1.164,2.045v6.515c0.326,0.189,0.723,0.334,1.189,0.426c0.464,0.097,0.947,0.145,1.45,0.145
				c1.166,0,2.105-0.415,2.803-1.242c0.697-0.828,1.044-2.122,1.044-3.88c0-0.672-0.056-1.302-0.177-1.887
				c-0.122-0.585-0.311-1.087-0.571-1.503c-0.256-0.41-0.589-0.736-0.993-0.979C217.433,1030.614,216.938,1030.493,216.353,1030.493
				z"/>
			<path fill="#FFFFFF" d="M228.489,1037.374l0.729,2.479h0.131l0.567-2.508l2.519-8.353h2.069l-3.825,11.614
				c-0.294,0.84-0.583,1.661-0.868,2.453c-0.284,0.791-0.597,1.502-0.941,2.124c-0.347,0.62-0.737,1.112-1.163,1.484
				c-0.434,0.366-0.934,0.559-1.504,0.559c-0.621,0-1.127-0.09-1.522-0.261l0.36-1.782c0.223,0.083,0.442,0.126,0.646,0.126
				c0.483,0,0.947-0.253,1.398-0.763c0.447-0.509,0.815-1.385,1.111-2.627l-5.199-12.928h2.381L228.489,1037.374z"/>
		</g>
	</g>
</g>
<g id="Layer_3">
</g>
</svg>
